<?xml version="1.0" encoding="UTF-8"?>
<svg data-bbox="226.796 139.482 1889.955 2057.909" xmlns="http://www.w3.org/2000/svg" viewBox="0 0 2344 2344" height="2344" width="2344" data-type="ugc">
    <g>
        <defs>
            <clipPath id="da1ef0ff-1237-4b4b-88da-2f7267c32435" clipPathUnits="userSpaceOnUse">
                <path d="M0 0h1757.477v1757.477H0Z"/>
            </clipPath>
            <clipPath id="d6f9ee32-c4ce-4f12-82d1-72b502eeca6c" clipPathUnits="userSpaceOnUse">
                <path d="M0 0h3661v3661H0Z"/>
            </clipPath>
        </defs>
        <g clip-path="url(#da1ef0ff-1237-4b4b-88da-2f7267c32435)" transform="scale(1.33333)">
            <g clip-path="url(#d6f9ee32-c4ce-4f12-82d1-72b502eeca6c)" transform="scale(.48005)">
                <path d="m2114.852 1720.809-2.407 215.894h33.821l-2.403-215.894z" fill="#886e51"/>
                <path d="M2146.684 1944.996h-34.653c-1.058 0-1.918.82-1.918 1.836l-2.508 20.328c0 1.016.86 1.836 1.918 1.836h39.668c1.059 0 1.914-.82 1.914-1.836l-2.507-20.328c0-1.016-.856-1.836-1.914-1.836" fill="#886e51"/>
                <path d="M2150.848 1680.418h-44.094a2.288 2.288 0 0 0-2.227 2.801l1.352 5.824a2.28 2.28 0 0 0 2.223 1.769h1.386l2.242 19.864c0 1.015.786 1.836 1.754 1.836h31.743c.972 0 1.757-.821 1.757-1.836l2.243-19.864h.273a2.29 2.29 0 0 0 2.227-1.769l1.347-5.824a2.288 2.288 0 0 0-2.226-2.801" fill="#886e51"/>
                <path d="M2515.82 1689.043a2.285 2.285 0 0 1-2.226 1.769h-.274l-2.246 19.868c0 1.011-.785 1.832-1.754 1.832h-31.738c-.969 0-1.758-.821-1.758-1.832l-2.246-19.868h-1.383a2.29 2.29 0 0 1-2.226-1.769l-1.344-5.824a2.283 2.283 0 0 1 2.223-2.801h44.093a2.286 2.286 0 0 1 2.227 2.801zm-39.281 247.656 2.406-215.89h29.012l2.406 215.89zm120.063-260.078c-41.235-18.019-166.168-18.019-207.414 0a4.47 4.47 0 0 0-2.7 4.102v285.808c0 2.848 39.953 4.461 85.231 4.84l2.492-24.176c0-1.215.855-2.199 1.914-2.199h34.652c1.059 0 1.914.984 1.914 2.199l2.489 24.168c44.82-.398 84.121-2.008 84.121-4.832v-285.808a4.47 4.47 0 0 0-2.699-4.102" fill="#886e51"/>
                <path d="m2226.547 1720.809-2.402 215.894h33.82l-2.403-215.894z" fill="#886e51"/>
                <path d="M2258.383 1944.996h-34.656c-1.055 0-1.915.82-1.915 1.836l-2.507 20.328c0 1.016.859 1.836 1.914 1.836h39.672c1.058 0 1.914-.82 1.914-1.836l-2.508-20.328c0-1.016-.856-1.836-1.914-1.836" fill="#886e51"/>
                <path d="M2262.547 1680.418h-44.094a2.285 2.285 0 0 0-2.226 2.801l1.347 5.824a2.285 2.285 0 0 0 2.227 1.769h1.383l2.246 19.864c0 1.015.785 1.836 1.754 1.836h31.742c.969 0 1.754-.821 1.754-1.836l2.246-19.864h.273a2.29 2.29 0 0 0 2.227-1.769l1.344-5.824a2.283 2.283 0 0 0-2.223-2.801" fill="#886e51"/>
                <path d="m2338.246 1720.809-2.406 215.894h33.824l-2.406-215.894z" fill="#886e51"/>
                <path d="M2370.078 1944.996h-34.652c-1.059 0-1.914.82-1.914 1.836L2331 1967.16c0 1.016.859 1.836 1.918 1.836h39.668c1.059 0 1.914-.82 1.914-1.836l-2.504-20.328c0-1.016-.859-1.836-1.918-1.836" fill="#886e51"/>
                <path d="M2374.242 1680.418h-44.094a2.283 2.283 0 0 0-2.222 2.801l1.347 5.824a2.28 2.28 0 0 0 2.223 1.769h1.387l2.242 19.864c0 1.015.785 1.836 1.758 1.836h31.738c.973 0 1.758-.821 1.758-1.836l2.242-19.864h.274a2.285 2.285 0 0 0 2.226-1.769l1.348-5.824a2.286 2.286 0 0 0-2.227-2.801" fill="#886e51"/>
                <path d="m1936.527 1713.586-2.406 222.262h33.82l-2.402-222.262z" fill="#886e51"/>
                <path d="M1968.359 1944.359h-34.656c-1.058 0-1.914.844-1.914 1.883l-2.508 20.867c0 1.043.86 1.887 1.914 1.887h39.672c1.055 0 1.914-.844 1.914-1.887l-2.508-20.867c0-1.039-.855-1.883-1.914-1.883" fill="#886e51"/>
                <path d="M1972.523 1672.125h-.765l1.82-14.437h1.043l2.082-2.825-2.082-2.828h-1.199v-29.152h3.348l4.808-13.328h-62.207l4.813 13.328h3.343v29.152h-1.199l-2.078 2.828 2.078 2.825h1.043l1.824 14.437h-.765c-1.469 0-2.559 1.402-2.227 2.871l1.348 5.984c.242 1.063 1.164 1.817 2.226 1.817h1.387l2.242 20.391c0 1.042.785 1.886 1.754 1.886h31.742c.969 0 1.754-.844 1.754-1.886l2.246-20.391h.274c1.062 0 1.984-.754 2.222-1.817l1.348-5.984c.332-1.469-.754-2.871-2.223-2.871" fill="#886e51"/>
                <path d="m1695.781 1713.586-2.406 222.262h33.82l-2.402-222.262z" fill="#886e51"/>
                <path d="M1727.613 1944.359h-34.656c-1.055 0-1.914.844-1.914 1.883l-2.508 20.867c0 1.043.86 1.887 1.918 1.887h39.668c1.059 0 1.914-.844 1.914-1.887l-2.508-20.867c0-1.039-.855-1.883-1.914-1.883" fill="#886e51"/>
                <path d="M1731.777 1672.125h-.769l1.824-14.437h1.043l2.082-2.825-2.082-2.828h-1.199v-29.152h3.347l4.809-13.328h-62.207l4.809 13.328h3.347v29.152h-1.199l-2.078 2.828 2.078 2.825h1.043l1.824 14.437h-.765c-1.469 0-2.559 1.402-2.227 2.871l1.348 5.984c.242 1.063 1.164 1.817 2.226 1.817h1.387l2.242 20.391c0 1.042.785 1.886 1.754 1.886h31.742c.969 0 1.754-.844 1.754-1.886l2.246-20.391h.274c1.062 0 1.984-.754 2.222-1.817l1.348-5.984c.332-1.469-.754-2.871-2.223-2.871" fill="#886e51"/>
                <path d="m2056.227 1713.586-2.407 222.262h33.825l-2.407-222.262z" fill="#886e51"/>
                <path d="M2088.059 1944.359h-34.653c-1.058 0-1.918.844-1.918 1.883l-2.508 20.867c0 1.043.86 1.887 1.918 1.887h39.668c1.059 0 1.914-.844 1.914-1.887l-2.503-20.867c0-1.039-.86-1.883-1.918-1.883" fill="#886e51"/>
                <path d="M2043.883 1622.883h3.347v29.152h-1.199l-2.082 2.828 2.082 2.828h1.043l1.824 14.434h-.769c-1.469 0-2.555 1.402-2.227 2.875l1.348 5.977c.242 1.066 1.164 1.816 2.227 1.816h1.386l2.242 20.395c0 1.039.79 1.886 1.758 1.886h31.739c.968 0 1.753-.847 1.753-1.886l2.247-20.395h.273c1.063 0 1.988-.75 2.227-1.816l1.347-5.977c.332-1.473-.758-2.875-2.226-2.875h-.766l1.824-14.434h1.043l2.078-2.828-2.078-2.828h-1.199v-29.152h3.344l4.812-13.328h-62.207z" fill="#886e51"/>
                <path d="M2252.125 1627.387c1.852 0 3.355-1.5 3.355-3.356v-44.086a3.354 3.354 0 0 0-3.355-3.355h-24.719a3.356 3.356 0 0 0-3.359 3.355v44.086a3.356 3.356 0 0 0 3.359 3.356z" fill="#886e51"/>
                <path d="M2371.891 1627.387c1.855 0 3.355-1.5 3.355-3.356v-44.086c0-1.855-1.5-3.355-3.355-3.355h-24.719a3.353 3.353 0 0 0-3.356 3.355v44.086c0 1.856 1.5 3.356 3.356 3.356z" fill="#886e51"/>
                <path d="M2475.199 1555.258v50.293a3.355 3.355 0 0 0 3.356 3.355h28.679c1.856 0 3.356-1.5 3.356-3.355v-50.293c0-1.852-1.5-3.356-3.356-3.356h-28.679a3.36 3.36 0 0 0-3.356 3.356" fill="#886e51"/>
                <path d="m1516.512 1720.809-2.403 215.894h33.821l-2.403-215.894z" fill="#886e51"/>
                <path d="M1548.348 1944.996h-34.657c-1.058 0-1.914.82-1.914 1.836l-2.507 20.328c0 1.016.859 1.836 1.914 1.836h39.671c1.055 0 1.915-.82 1.915-1.836l-2.508-20.328c0-1.016-.856-1.836-1.914-1.836" fill="#886e51"/>
                <path d="M1553.621 1680.418h-44.094a2.283 2.283 0 0 0-2.222 2.801l1.347 5.824a2.28 2.28 0 0 0 2.223 1.769h.273l2.247 19.864c0 1.015.785 1.836 1.753 1.836h31.743c.968 0 1.754-.821 1.754-1.836l2.246-19.864h1.382a2.285 2.285 0 0 0 2.227-1.769l1.348-5.824a2.286 2.286 0 0 0-2.227-2.801" fill="#886e51"/>
                <path d="M1190.406 1689.043a2.285 2.285 0 0 1-2.226 1.769h-1.383l-2.246 19.868c0 1.011-.785 1.832-1.754 1.832h-31.742c-.969 0-1.754-.821-1.754-1.832l-2.246-19.868h-.27a2.285 2.285 0 0 1-2.226-1.769l-1.348-5.824a2.283 2.283 0 0 1 2.223-2.801h44.093a2.286 2.286 0 0 1 2.227 2.801zm-40.39 247.656 2.406-215.89h29.012l2.402 215.89zm121.175-260.078c-41.246-18.019-166.179-18.019-207.418 0a4.47 4.47 0 0 0-2.699 4.102v285.808c0 2.824 39.305 4.434 84.121 4.832l2.489-24.168c0-1.215.859-2.199 1.918-2.199h34.652c1.055 0 1.914.984 1.914 2.199l2.488 24.176c45.282-.379 85.231-1.992 85.231-4.84v-285.808a4.47 4.47 0 0 0-2.696-4.102" fill="#886e51"/>
                <path d="m1404.816 1720.809-2.402 215.894h33.82l-2.406-215.894z" fill="#886e51"/>
                <path d="M1436.648 1944.996h-34.652c-1.058 0-1.914.82-1.914 1.836l-2.512 20.328c0 1.016.86 1.836 1.918 1.836h39.668c1.059 0 1.914-.82 1.914-1.836l-2.504-20.328c0-1.016-.859-1.836-1.918-1.836" fill="#886e51"/>
                <path d="M1441.926 1680.418h-44.094a2.286 2.286 0 0 0-2.227 2.801l1.348 5.824a2.29 2.29 0 0 0 2.227 1.769h.273l2.246 19.864c0 1.015.785 1.836 1.754 1.836h31.742c.969 0 1.754-.821 1.754-1.836l2.246-19.864h1.383a2.28 2.28 0 0 0 2.223-1.769l1.347-5.824a2.283 2.283 0 0 0-2.222-2.801" fill="#886e51"/>
                <path d="m1293.117 1720.809-2.402 215.894h33.82l-2.402-215.894z" fill="#886e51"/>
                <path d="M1324.953 1944.996h-34.656c-1.055 0-1.914.82-1.914 1.836l-2.508 20.328c0 1.016.859 1.836 1.914 1.836h39.672c1.059 0 1.914-.82 1.914-1.836l-2.508-20.328c0-1.016-.859-1.836-1.914-1.836" fill="#886e51"/>
                <path d="M1330.227 1680.418h-44.094a2.283 2.283 0 0 0-2.223 2.801l1.348 5.824a2.28 2.28 0 0 0 2.222 1.769h.274l2.246 19.864c0 1.015.785 1.836 1.754 1.836h31.742c.969 0 1.754-.821 1.754-1.836l2.246-19.864h1.383a2.285 2.285 0 0 0 2.226-1.769l1.348-5.824a2.284 2.284 0 0 0-2.226-2.801" fill="#886e51"/>
                <path d="m1575.137 1713.586-2.403 222.262h33.821l-2.403-222.262z" fill="#886e51"/>
                <path d="M1606.973 1944.359h-34.657c-1.054 0-1.914.844-1.914 1.883l-2.507 20.867c0 1.043.859 1.887 1.914 1.887h39.671c1.059 0 1.915-.844 1.915-1.887l-2.508-20.867c0-1.039-.856-1.883-1.914-1.883" fill="#886e51"/>
                <path d="M1612.246 1672.125h-.766l1.825-14.437h1.043l2.082-2.825-2.082-2.828h-1.2v-29.152h3.348l4.809-13.328h-62.207l4.808 13.328h3.348v29.152h-1.199l-2.082 2.828 2.082 2.825h1.043l1.82 14.437h-.766c-1.468 0-2.554 1.402-2.222 2.871l1.347 5.984c.239 1.063 1.161 1.817 2.223 1.817h.273l2.247 20.391c0 1.042.785 1.886 1.753 1.886h31.743c.968 0 1.754-.844 1.754-1.886l2.246-20.391h1.382c1.067 0 1.985-.754 2.227-1.817l1.348-5.984c.332-1.469-.754-2.871-2.227-2.871" fill="#886e51"/>
                <path d="M1408.254 1576.586a3.356 3.356 0 0 0-3.356 3.359v44.086c0 1.856 1.5 3.356 3.356 3.356h24.719c1.855 0 3.355-1.5 3.355-3.356v-44.086c0-1.855-1.5-3.359-3.355-3.359z" fill="#886e51"/>
                <path d="M1288.488 1576.586a3.36 3.36 0 0 0-3.359 3.359v44.086a3.356 3.356 0 0 0 3.359 3.356h24.719c1.852 0 3.355-1.5 3.355-3.356v-44.086a3.36 3.36 0 0 0-3.355-3.359z" fill="#886e51"/>
                <path d="M1153.141 1608.906h28.683c1.852 0 3.352-1.5 3.352-3.355v-50.293c0-1.852-1.5-3.356-3.352-3.356h-28.683a3.36 3.36 0 0 0-3.356 3.356v50.293a3.355 3.355 0 0 0 3.356 3.355" fill="#886e51"/>
                <path d="m1681.293 814.547 73.383-37.344h162.406l73.383 37.344v-29.641l-73.383-38.613h-162.406l-73.383 38.613z" fill="#886e51"/>
                <path d="M1749.859 670.781c3.188 0 5.774 3.899 5.774 8.703 0 4.805-2.586 8.7-5.774 8.7-3.191 0-5.777-3.895-5.777-8.7s2.586-8.703 5.777-8.703m85.961-10.929a8.7 8.7 0 0 1 8.7 8.703 8.7 8.7 0 0 1-8.7 8.699c-4.804 0-8.703-3.895-8.703-8.699a8.703 8.703 0 0 1 8.703-8.703m86.43 10.929c3.191 0 5.777 3.899 5.777 8.703 0 4.805-2.586 8.7-5.777 8.7-3.188 0-5.773-3.895-5.773-8.7s2.585-8.703 5.773-8.703m-190.086-19.398h-.019v9.633c-6.743 4.625-11.27 13.05-11.27 22.714v20.344h-33.844v67.719l50.492-26.563v-48.058c0-4.367 2.348-7.906 5.247-7.906s5.25 3.539 5.25 7.906v42.535l3.757-1.98v-40.555c0-4.367 2.348-7.906 5.246-7.906s5.25 3.539 5.25 7.906v39.031h54.965v-49.961a7.905 7.905 0 1 1 15.809 0v49.961h5.664v-49.961a7.905 7.905 0 1 1 15.809 0v49.961h55.398v-39.031c0-4.367 2.348-7.906 5.246-7.906s5.25 3.539 5.25 7.906v40.785l3.758 1.977v-42.762c0-4.367 2.348-7.906 5.246-7.906s5.25 3.539 5.25 7.906v48.281l50.059 26.34v-67.719h-33.415V683.73c0-9.699-4.562-18.152-11.343-22.769v-9.578c-2.321 0-4.539-1.703-5.453-4.535q-1.078-3.334-.496-7.489c.765-.007 1.386-.828 1.386-1.843 0-1.024-.625-1.852-1.394-1.852h-7.93c-.77 0-1.394.828-1.394 1.852 0 1.015.624 1.843 1.394 1.843h.012c.39 2.77.218 5.266-.496 7.489-.914 2.832-3.133 4.535-5.453 4.535h-.024v7.555c-6.508 2.8-11.629 8.859-13.828 16.46h-29.613c-1.801-15.683-12.434-28.656-26.789-33.875v-11.05c-3.282 0-6.414-1.817-7.707-4.832-1.016-2.371-1.254-5.032-.704-7.985a1.969 1.969 0 0 0-.011-3.937h-11.207c-1.09 0-1.969.879-1.969 1.969 0 1.089.879 1.968 1.969 1.968h.019c.547 2.953.309 5.614-.703 7.985-1.297 3.015-4.43 4.832-7.711 4.832h-.027v11.058c-14.344 5.227-24.961 18.192-26.762 33.867h-29.18c-2.207-7.632-7.359-13.71-13.906-16.492v-7.523c-2.324 0-4.539-1.703-5.453-4.535q-1.08-3.334-.5-7.489c.766-.007 1.387-.828 1.387-1.843 0-1.024-.625-1.852-1.395-1.852h-7.929c-.77 0-1.395.828-1.395 1.852 0 1.015.625 1.843 1.395 1.843h.015q.58 4.155-.5 7.489c-.914 2.832-3.133 4.535-5.453 4.535" fill="#886e51"/>
                <path d="M2352.129 1136.367v87.832h-43.293v-112.133h43.293zm0 181.926v112.133h-43.293v-112.488h43.293zm-144.707-93.555v6.227l-19.043 8.617v-24.301 2.008-89.844l19.043-8.617v105.906zm0 209.45v3.007l-19.043 8.617v-112.135l19.043-8.618v109.126zm246.125 0v-109.126l19.043 8.618v112.132l-19.043-8.617zm0-209.45v-105.906l19.043 8.617v89.84-2.008 24.301l-19.043-8.617zm0 318.813 19.043-1.293.328-.016c1.562-1.16 3.48-1.867 5.566-1.867h18.149v-24.895c.699.446 1.406.887 2.066 1.34 2.281 1.571 5.942.383 5.942-1.91v-24.851c0-6.176-2.864-11.786-8.008-16.848v-163.277c.699.441 1.406.882 2.066 1.336 2.281 1.57 5.942.382 5.942-1.915v-24.847c0-6.176-2.864-11.785-8.008-16.848v-151.715c.699.621 1.406 1.246 2.066 1.883 2.281 2.207 5.942.535 5.942-2.691v-48.746c0-42.235-66.731-65.981-141.778-71.246a431 431 0 0 0-64.761 0c-75.047 5.265-141.778 29.011-141.778 71.246v48.746c0 3.23 3.656 4.902 5.942 2.691.66-.637 1.363-1.258 2.062-1.883v151.715c-5.14 5.063-8.004 10.672-8.004 16.848v24.851c0 2.293 3.656 3.481 5.942 1.911.66-.454 1.363-.895 2.062-1.336v163.277c-5.14 5.062-8.004 10.672-8.004 16.848v24.851c0 2.293 3.656 3.481 5.942 1.91.66-.453 1.363-.894 2.062-1.336v51.672h57.16c1.614-1.293 3.629-2.097 5.848-2.097h24.719c2.222 0 4.234.804 5.847 2.097h83.352c1.613-1.293 3.629-2.097 5.848-2.097h24.718c2.223 0 4.239.804 5.848 2.097h5.305c9.453-14.961 43.089-21.094 70.574-23.605" fill="#886e51"/>
                <path d="M2312.926 857.398v-47.441h34.84v67h-34.84zm-128.598 66.008v86.614c68.504-37.352 223.527-37.352 292.035 0v-86.614h1.883l.106-.203a20.05 20.05 0 0 0 0-18.625l-.106-.203h-1.883v-76.227c0-78.425-292.035-78.425-292.035 0v76.227h-1.742a20.05 20.05 0 0 0 0 19.031z" fill="#886e51"/>
                <path d="M2194.676 770.672v-60.121l15.066-24.66.25 23.418.278 26.355.246 22.859.082 8.079.031 2.726-15.953 12.598zm111.894-392.738c3.118-.895 6.582-1.594 10.254-2.079v90.25c-3.664.504-7.133 1.215-10.254 2.141zm18.582-2.817c3.399-.16 6.852-.16 10.254-.004v90.231c-3.406-.164-6.851-.16-10.254.008zm18.578.719c3.672.48 7.137 1.172 10.258 2.059v90.308c-3.125-.918-6.597-1.617-10.258-2.113zm106.332 390.766.086-8.079.243-22.859.281-26.355.25-23.418 15.062 24.66v71.375l-15.953-12.598zm-262.035 32.136c16.969-22.804 61.211-35.691 108.692-39.765v-92.067l-8.332-9.515 8.332-9.516h.105c-1.187-.266-2.097-1.277-2.097-2.543v-.113a2.664 2.664 0 0 1 2.656-2.653h.223c-.774-.464-1.321-1.277-1.321-2.238v-.484a2.66 2.66 0 0 1 2.657-2.653h.238a3.45 3.45 0 0 1-.364-1.523 3.495 3.495 0 0 1 3.497-3.496 3.495 3.495 0 0 1 3.496 3.496c0 .547-.141 1.059-.367 1.523h.242a2.66 2.66 0 0 1 2.656 2.653v.484c0 .961-.547 1.774-1.32 2.238h.222a2.664 2.664 0 0 1 2.657 2.653v.113c0 1.266-.911 2.277-2.098 2.543h2.695c3.278-7.074 5.043-14.348 4.496-21.922h-2.832l-4.504-5.723 4.504-5.722-4.504-5.723 4.504-5.719h1.469c-1.195-.605-2.02-1.828-2.02-3.257a3.66 3.66 0 0 1 3.657-3.657c.179 0 .351.028.519.055-.328-.418-.554-.918-.554-1.492a2.44 2.44 0 0 1 2.437-2.442c.617 0 1.168.25 1.594.629l4.617-12.195c-.066 0-.133-.035-.133-.117v-6.106c0-.718.559-1.281 1.422-1.711l3.992-22.621c.239-1.332 2.145-1.332 2.379 0l3.992 22.621c.868.43 1.426.993 1.426 1.711v6.106c0 .082-.066.117-.137.117l4.618 12.195c.429-.379.976-.629 1.593-.629a2.44 2.44 0 0 1 2.438 2.442c0 .574-.227 1.074-.555 1.492.172-.027.34-.055.52-.055a3.66 3.66 0 0 1 3.66 3.657c0 1.429-.828 2.652-2.024 3.257h1.59l4.383 5.719-4.383 5.723 4.383 5.722-4.383 5.723h-2.976c-.551 7.574 1.218 14.848 4.496 21.922h3.398c-1.183-.266-2.094-1.277-2.094-2.543v-.113a2.664 2.664 0 0 1 2.653-2.653h.222c-.769-.464-1.316-1.277-1.316-2.238v-.484a2.66 2.66 0 0 1 2.656-2.653h.239a3.45 3.45 0 0 1-.364-1.523 3.493 3.493 0 0 1 3.496-3.496 3.49 3.49 0 0 1 3.493 3.496c0 .547-.137 1.059-.364 1.523h.239a2.66 2.66 0 0 1 2.656 2.653v.484c0 .961-.547 1.774-1.317 2.238h.223a2.66 2.66 0 0 1 2.652 2.653v.113c0 1.371-1.058 2.465-2.394 2.602l8.055 9.457-8.106 9.515h-.226v92.028c25.671 2.156 49.105 6.769 67.98 13.527 19.313 6.918 33.004 15.797 40.707 26.211v-83.961l6.063-6.363-6.063-21.313-6.016-6.324-.011-.008c1.246-.219 2.215-1.262 2.215-2.566v-.114a2.667 2.667 0 0 0-2.657-2.656h-.222c.773-.465 1.32-1.273 1.32-2.238v-.481a2.664 2.664 0 0 0-2.656-2.656h-.239c.227-.461.364-.972.364-1.523a3.5 3.5 0 0 0-2.153-3.227 60 60 0 0 1-.01-5.762h.593l2.617-5.722-2.617-5.723 2.617-5.723-2.617-5.722h-.949c.711-.602 1.207-1.824 1.207-3.254 0-2.02-.98-3.656-2.187-3.656-.106 0-.207.027-.309.054a3.5 3.5 0 0 0 .332-1.492c0-1.347-.656-2.441-1.457-2.441-.371 0-.699.25-.957.629l-2.758-12.196c.043 0 .082-.035.082-.117v-6.105c0-.719-.332-1.285-.851-1.711l-1.895-17.981c-.152-1.441-2.25-1.441-2.402 0l-1.899 17.981c-.515.426-.847.992-.847 1.711v6.105c0 .082.039.117.078.113l-2.758 12.2c-.258-.379-.586-.629-.953-.629-.805 0-1.457 1.094-1.457 2.441 0 .57.133 1.074.332 1.492-.106-.027-.207-.054-.313-.054-1.207 0-2.183 1.636-2.183 3.656 0 1.43.492 2.652 1.207 3.254h-.879l-2.691 5.722 2.691 5.723-2.691 5.723 2.691 5.722h1.816c-.285 7.543-9.386 10.829-26.265 16.184l-.438.633-48.687-177.41c.398-.004.777-.297.777-.766v-17.512c0-3.601-2.387-6.558-6.27-8.894v-90.418c1.149.68 2.168 1.406 3.008 2.195.473.446 1.235.11 1.235-.543V372.34c0-2.164-.938-4.074-2.532-5.758l-19.007-50.219c.16.004.308-.074.308-.258v-13.843c0-1.641-1.254-2.938-3.23-3.907l-9.653-54.66a5.04 5.04 0 0 0 2.946-4.578 5.02 5.02 0 0 0-2.266-4.203l-1.574-15.906c-.145-1.453-2.258-1.453-2.402 0l-1.575 15.906a5.03 5.03 0 0 0-2.265 4.203 5.04 5.04 0 0 0 2.945 4.578l-9.648 54.66c-1.981.969-3.235 2.266-3.235 3.907v13.843c0 .184.153.262.309.258l-19.004 50.219c-1.598 1.684-2.535 3.594-2.535 5.758v10.609c0 .653.761.989 1.234.543.809-.758 1.781-1.465 2.871-2.121v90.426c-3.797 2.324-6.129 5.254-6.129 8.812v17.512c0 .469.379.762.774.766l-48.485 176.679c-16.691-5.296-26.621-8.589-26.906-16.086h1.816l2.692-5.722-2.692-5.723 2.692-5.723-2.692-5.722h-.874c.71-.602 1.207-1.824 1.207-3.254 0-2.02-.981-3.656-2.188-3.656-.105 0-.207.027-.309.054.196-.418.329-.922.329-1.492 0-1.347-.649-2.441-1.457-2.441-.368 0-.696.25-.954.629l-2.757-12.2c.043.004.082-.031.082-.113v-6.105c0-.719-.336-1.285-.852-1.711l-1.898-17.981c-.153-1.441-2.246-1.441-2.399 0l-1.898 17.981c-.516.426-.852.992-.852 1.711v6.105c0 .082.039.117.082.117l-2.758 12.196c-.257-.379-.586-.629-.953-.629-.804 0-1.457 1.094-1.457 2.441 0 .57.133 1.074.332 1.492-.105-.027-.207-.054-.312-.054-1.207 0-2.184 1.636-2.184 3.656 0 1.43.492 2.652 1.203 3.254h-.949l-2.617 5.722 2.617 5.723-2.617 5.723 2.617 5.722h.598c.086 1.942.086 3.86-.01 5.762a3.5 3.5 0 0 0-2.156 3.227c0 .551.14 1.062.363 1.523h-.238a2.665 2.665 0 0 0-2.657 2.656v.481c0 .965.547 1.773 1.321 2.238h-.223a2.666 2.666 0 0 0-2.656 2.656v.114c0 1.304.969 2.347 2.215 2.566l-.012.008-6.016 6.324-6.058 21.313 6.058 6.363v84.027z" fill="#886e51"/>
                <path d="M2312.926 690.023h34.84v62.676h-34.84z" fill="#886e51"/>
                <path d="M1674.637 973.449h4.984a13.8 13.8 0 0 1-1.039-5.258v-4.824c0-4.269 1.941-8.094 4.992-10.637a18.6 18.6 0 0 1-.926-5.816c0-4.875 1.872-9.402 5.071-12.754l1.011-10.594a12.07 12.07 0 0 1 12.059-10.961c2.547 0 4.914.778 6.867 2.118l-2.097-12.012h31.871c7.64-34.031 32.082-61.656 65.039-73.399.304-.621.636-1.171.965-1.64l.023-.051c.711-1.754 2.566-6.32 7.602-8.266 1.32-3.003 3.066-5.402 5.222-7.183.106-.317.219-.633.356-.945.125-2.7 1.004-5.231 2.629-7.332a12.4 12.4 0 0 1 3.222-2.926 12.9 12.9 0 0 1 4.266-4.028c2.98-3.859 7.324-4.511 9.465-4.582v.004q.509-.022 1.023 0v-.004c2.145.071 6.488.727 9.469 4.582a13 13 0 0 1 4.266 4.028 12.4 12.4 0 0 1 3.222 2.926c1.621 2.101 2.5 4.632 2.629 7.328q.198.474.356.949c2.156 1.781 3.898 4.183 5.218 7.183 5.043 1.954 6.895 6.508 7.606 8.262l.019.055c.313.445.629.965.926 1.555 33.086 11.687 57.621 39.351 65.281 73.484h31.868l-2.075 11.863a12.1 12.1 0 0 1 6.649-1.969 12.07 12.07 0 0 1 12.054 10.965l1.012 10.59c3.195 3.352 5.066 7.879 5.066 12.754 0 2.008-.312 3.965-.921 5.816a13.83 13.83 0 0 1 4.988 10.637v4.824c0 1.86-.367 3.637-1.035 5.258h3.836V829.43l-7.211-3.668-73.387-37.344h-162.406l-73.383 37.344-7.215 3.668v144.019c.188-.117.367.117.559 0" fill="#886e51"/>
                <path d="M1206.762 1142.293v88.672l-19.043 8.617v-24.305 2.008-89.832l19.043-8.617zm0 202.289v92.613l-19.043 8.617V1333.68l19.043-8.618zm101.418 85.484v-112.132h43.293v112.492h-43.293zm0-222.957v-95.043h43.293v112.129h-43.293zm144.707 137.473v-19.52l19.043 8.618v112.124l-19.043-8.617v-92.613zm0-202.289v-23.457l19.043 8.617v89.836-2.008 24.305l-19.043-8.617v-88.672zm-164.403 422.766h24.723c2.219 0 4.234.804 5.844 2.093h83.359c1.61-1.289 3.625-2.093 5.844-2.093h24.719c2.218 0 4.234.804 5.847 2.093h57.16v-51.672c.7.446 1.403.891 2.063 1.34 2.285 1.575 5.941.383 5.941-1.91v-24.851c0-6.176-2.863-11.786-8.004-16.848v-163.277c.7.441 1.403.882 2.063 1.336 2.285 1.57 5.941.382 5.941-1.911v-24.851c0-6.176-2.863-11.785-8.004-16.848v-151.715c.7.621 1.403 1.246 2.063 1.883 2.285 2.211 5.941.539 5.941-2.691v-48.746c0-42.235-66.73-65.985-141.777-71.246a431 431 0 0 0-64.762 0c-75.047 5.261-141.777 29.011-141.777 71.246v48.746c0 3.23 3.656 4.898 5.941 2.691.661-.64 1.364-1.262 2.063-1.887v151.719c-5.141 5.063-8.004 10.672-8.004 16.848v24.847c0 2.297 3.656 3.485 5.941 1.915.661-.454 1.364-.895 2.063-1.336v163.277c-5.141 5.062-8.004 10.672-8.004 16.848v24.851c0 2.293 3.656 3.481 5.941 1.91.661-.453 1.364-.894 2.063-1.34v24.895h18.152c2.09 0 4.004.711 5.567 1.867l.328.016 19.043 1.293c27.488 2.508 61.121 8.644 70.574 23.601h5.305c1.609-1.289 3.625-2.093 5.843-2.093" fill="#886e51"/>
                <path d="M1312.406 857.398v-47.441h34.84v67h-34.84zm-128.597 66.008v86.614c68.503-37.352 223.531-37.352 292.035 0v-86.614h1.883l.105-.203a20.05 20.05 0 0 0 0-18.625l-.105-.203h-1.883v-76.227c0-78.425-292.035-78.425-292.035 0v76.227h-1.743a20.05 20.05 0 0 0 0 19.031z" fill="#886e51"/>
                <path d="M1194.156 770.672v-60.121l15.067-24.66.246 23.418.281 26.355.246 22.859.086 8.079.027 2.726-15.953 12.598zm111.895-392.738c3.117-.895 6.582-1.594 10.254-2.079v90.25c-3.66.504-7.129 1.215-10.254 2.141zm18.582-2.817c3.398-.16 6.851-.16 10.254-.004v90.231c-3.407-.164-6.852-.16-10.254.008zm18.582.719c3.668.48 7.133 1.172 10.25 2.059v90.308c-3.121-.918-6.594-1.617-10.25-2.113zm106.324 390.766.09-8.079.242-22.859.281-26.355.25-23.418 15.063 24.66v71.375l-15.953-12.598zm-262.031 32.136c16.969-22.804 61.207-35.691 108.687-39.765v-92.067l-8.328-9.515 8.328-9.516h.106c-1.188-.266-2.098-1.277-2.098-2.543v-.113a2.664 2.664 0 0 1 2.656-2.653h.223c-.773-.464-1.32-1.277-1.32-2.238v-.484a2.66 2.66 0 0 1 2.656-2.653h.238a3.5 3.5 0 0 1-.363-1.523 3.494 3.494 0 0 1 3.496-3.496 3.494 3.494 0 0 1 3.496 3.496c0 .547-.14 1.059-.367 1.523h.242a2.66 2.66 0 0 1 2.656 2.653v.484c0 .961-.546 1.774-1.32 2.238h.223a2.664 2.664 0 0 1 2.656 2.653v.113c0 1.266-.91 2.277-2.098 2.543h2.696c3.277-7.074 5.047-14.348 4.496-21.922h-2.832l-4.504-5.723 4.504-5.722-4.504-5.723 4.504-5.719h1.468a3.65 3.65 0 0 1-2.019-3.257 3.66 3.66 0 0 1 3.656-3.657c.176 0 .348.028.52.055-.328-.418-.555-.918-.555-1.492a2.443 2.443 0 0 1 2.441-2.442c.614 0 1.164.25 1.594.629l4.613-12.195c-.07 0-.132-.035-.132-.117v-6.106c0-.718.558-1.281 1.422-1.711l3.992-22.621c.234-1.332 2.144-1.332 2.379 0l3.992 22.621c.867.43 1.426.993 1.426 1.711v6.106c0 .082-.067.117-.137.117l4.613 12.195c.434-.379.981-.629 1.598-.629a2.44 2.44 0 0 1 2.437 2.442c0 .574-.226 1.074-.554 1.492.171-.027.339-.055.519-.055a3.66 3.66 0 0 1 3.656 3.657 3.65 3.65 0 0 1-2.015 3.257h1.586l4.383 5.719-4.383 5.723 4.383 5.722-4.383 5.723h-2.977c-.551 7.574 1.219 14.848 4.496 21.922h3.403c-1.188-.266-2.098-1.277-2.098-2.543v-.113a2.664 2.664 0 0 1 2.656-2.653h.223c-.774-.464-1.32-1.277-1.32-2.238v-.484a2.66 2.66 0 0 1 2.656-2.653h.238a3.5 3.5 0 0 1-.363-1.523 3.494 3.494 0 1 1 6.988 0c0 .547-.137 1.059-.363 1.523h.238a2.66 2.66 0 0 1 2.656 2.653v.484c0 .961-.543 1.774-1.316 2.238h.223a2.66 2.66 0 0 1 2.652 2.653v.113c0 1.371-1.059 2.465-2.391 2.602l8.051 9.457-8.105 9.515h-.223v92.028c25.668 2.156 49.101 6.769 67.977 13.527 19.312 6.918 33.003 15.797 40.71 26.211v-83.961l6.059-6.363-6.059-21.313-6.019-6.324-.01-.008c1.242-.219 2.211-1.262 2.211-2.566v-.114a2.665 2.665 0 0 0-2.652-2.656h-.223c.77-.465 1.316-1.273 1.316-2.238v-.481a2.664 2.664 0 0 0-2.656-2.656h-.238a3.5 3.5 0 0 0 .363-1.523 3.5 3.5 0 0 0-2.152-3.227 60 60 0 0 1-.01-5.762h.594l2.617-5.722-2.617-5.723 2.617-5.723-2.617-5.722h-.949c.711-.602 1.207-1.824 1.207-3.254 0-2.02-.977-3.656-2.188-3.656a1.2 1.2 0 0 0-.308.054 3.5 3.5 0 0 0 .332-1.492c0-1.347-.653-2.441-1.461-2.441-.368 0-.696.25-.954.629l-2.757-12.196c.043 0 .082-.035.082-.117v-6.105c0-.719-.332-1.285-.852-1.711l-1.894-17.981c-.153-1.441-2.25-1.441-2.403 0l-1.898 17.981c-.516.426-.852.992-.852 1.711v6.105c0 .082.039.117.086.113l-2.762 12.2c-.257-.379-.582-.629-.953-.629-.804 0-1.457 1.094-1.457 2.441 0 .57.137 1.074.332 1.492a1.2 1.2 0 0 0-.312-.054c-1.207 0-2.184 1.636-2.184 3.656 0 1.43.492 2.652 1.207 3.254h-.875l-2.695 5.722 2.695 5.723-2.695 5.723 2.695 5.722h1.817c-.289 7.543-9.391 10.829-26.27 16.184l-.437.633-48.688-177.41c.399-.004.777-.297.777-.766v-17.512c0-3.601-2.386-6.558-6.269-8.894v-90.418c1.148.68 2.168 1.406 3.008 2.195a.73.73 0 0 0 1.234-.543V372.34c0-2.164-.937-4.074-2.535-5.758l-19.004-50.219c.16.004.309-.074.309-.258v-13.843c0-1.641-1.254-2.938-3.235-3.907l-9.648-54.66a5.025 5.025 0 0 0 .68-8.781l-1.575-15.906c-.144-1.453-2.257-1.453-2.402 0l-1.574 15.906a5.04 5.04 0 0 0-2.27 4.203c0 2.035 1.215 3.778 2.949 4.578l-9.648 54.66c-1.98.969-3.234 2.266-3.234 3.907v13.843c0 .184.152.262.308.258l-19.004 50.219c-1.597 1.684-2.535 3.594-2.535 5.758v10.609c0 .653.762.989 1.235.543.808-.758 1.781-1.465 2.871-2.121v90.426c-3.797 2.324-6.133 5.254-6.133 8.812v17.512c0 .469.379.762.777.766l-48.484 176.679c-16.692-5.296-26.621-8.589-26.906-16.086h1.816l2.691-5.722-2.691-5.723 2.691-5.723-2.691-5.722h-.875c.711-.602 1.207-1.824 1.207-3.254 0-2.02-.98-3.656-2.187-3.656-.106 0-.208.027-.313.054a3.46 3.46 0 0 0 .336-1.492c0-1.347-.652-2.441-1.461-2.441-.367 0-.695.25-.953.629l-2.758-12.2c.043.004.082-.031.082-.113v-6.105c0-.719-.336-1.285-.851-1.711l-1.899-17.981c-.152-1.441-2.246-1.441-2.398 0l-1.899 17.981c-.515.426-.851.992-.851 1.711v6.105c0 .082.039.117.082.117l-2.758 12.196c-.258-.379-.586-.629-.953-.629-.805 0-1.461 1.094-1.461 2.441 0 .57.137 1.074.336 1.492a1.2 1.2 0 0 0-.313-.054c-1.207 0-2.187 1.636-2.187 3.656 0 1.43.496 2.652 1.211 3.254h-.953l-2.618 5.722 2.618 5.723-2.618 5.723 2.618 5.722h.593q.135 2.911 0 5.762a3.5 3.5 0 0 0-2.156 3.227c0 .551.141 1.062.367 1.523h-.242a2.664 2.664 0 0 0-2.656 2.656v.481c0 .965.547 1.773 1.32 2.238h-.222a2.667 2.667 0 0 0-2.657 2.656v.114c0 1.304.969 2.347 2.215 2.566l-.01.008-6.019 6.324-6.063 21.313 6.063 6.363v84.027z" fill="#886e51"/>
                <path d="M1312.41 690.023h34.836v62.676h-34.836z" fill="#886e51"/>
                <path d="M1683.281 688.449a6.07 6.07 0 0 0-2.164 3.508h27.641v-8.227c0-10.925 4.121-21.082 11.269-28.308v-16.156h4.668a15 15 0 0 1-.105-1.754c0-7.7 6.062-13.961 13.512-13.961h7.929c7.449 0 13.512 6.261 13.512 13.961q0 .89-.105 1.754h4.671v12.777c1.614 1.227 3.094 2.625 4.493 4.121-.063-.355-.125-.715-.122-1.086l.012-.64a6.06 6.06 0 0 1 2.555-4.84 6.05 6.05 0 0 1-2.285-4.993l.023-.57a6.05 6.05 0 0 1 2.676-4.82 6.05 6.05 0 0 1-2.16-5.039l.043-.602a6.05 6.05 0 0 1 2.801-4.73 6.05 6.05 0 0 1-2.02-5.106l.051-.574c.047-.469.148-.914.293-1.34.043-.144.109-.277.168-.414a5.2 5.2 0 0 1 .675-1.222c.161-.223.333-.426.52-.629.117-.121.23-.247.356-.356.23-.207.476-.383.734-.551.086-.058.16-.136.25-.187a6.14 6.14 0 0 1-1.906-5.246l.066-.535a6.05 6.05 0 0 1 3.082-4.52 6.04 6.04 0 0 1-1.703-5.25l.098-.598a6.04 6.04 0 0 1 3.246-4.445 6.05 6.05 0 0 1-1.512-5.301l.125-.644a6.06 6.06 0 0 1 3.422-4.297 6.05 6.05 0 0 1-1.289-5.359l.148-.61.028.008a6.2 6.2 0 0 1 3.687-4.109c-.031-.039-.051-.09-.082-.129a6 6 0 0 1-.609-.973c-.067-.129-.114-.266-.168-.398a7 7 0 0 1-.289-.856c-.036-.156-.071-.305-.094-.461a6 6 0 0 1-.078-.93c0-.144-.012-.285 0-.425.027-.457.094-.918.23-1.375l.18-.598a6.04 6.04 0 0 1 3.879-3.992 6.06 6.06 0 0 1-.695-5.535l.222-.602c.18-.476.414-.922.692-1.324a6.06 6.06 0 0 1 3.453-2.41 6.07 6.07 0 0 1-.297-5.594l.266-.582a6.06 6.06 0 0 1 4.48-3.43 6.06 6.06 0 0 1 .207-5.64v-.004l.336-.578a6.05 6.05 0 0 1 4.836-2.973 6 6 0 0 1-.317-1.426 6.02 6.02 0 0 1 1.184-4.23l.359-.485c1.262-1.679 3.235-2.504 5.184-2.402.027 0 .059-.008.086-.008a6.2 6.2 0 0 1-.121-1.469 6.04 6.04 0 0 1 1.789-4.062l.484-.477c.184-.171.391-.3.594-.437h17.379c-.383 1.336-1.203 2.558-2.453 3.391l-.438.293a6.03 6.03 0 0 1-4.812.886c.023.692-.098 1.383-.305 2.047-.043.129-.058.266-.109.391-.063.156-.16.297-.231.449-.113.23-.215.465-.355.68-.059.089-.141.164-.207.25-.192.257-.379.515-.617.75l-.399.386c-1.289 1.278-3 1.848-4.687 1.743a6.07 6.07 0 0 1-1.082 4.863l-.368.48a6.03 6.03 0 0 1-4.461 2.41 6.02 6.02 0 0 1-.492 5.098l-.269.469a6 6 0 0 1-.742 1.004c-.028.031-.043.074-.071.101a6.04 6.04 0 0 1-3.422 1.848 6.06 6.06 0 0 1 .043 5.164l-.242.52a6.04 6.04 0 0 1-3.988 3.355 6.06 6.06 0 0 1 .457 5.211l-.203.535a6.04 6.04 0 0 1-3.762 3.652 6.05 6.05 0 0 1 .813 5.192l-.168.562a6.2 6.2 0 0 1-.504 1.164c-.055.102-.118.196-.176.293q-.269.434-.602.809c-.05.059-.097.125-.152.184-.277.289-.586.55-.914.777-.078.055-.156.094-.234.144a6.5 6.5 0 0 1-.864.454c-.054.023-.105.062-.168.086a5.87 5.87 0 0 1 1.153 5.136l-.047.203-.094.375a6.03 6.03 0 0 1-3.375 4.09 6.06 6.06 0 0 1 1.336 5.16l-.109.543a6 6 0 0 1-.434 1.356 6.08 6.08 0 0 1-2.777 2.887 6.1 6.1 0 0 1 1.609 3.671c.035.465.016.946-.062 1.422l-.094.598a6.06 6.06 0 0 1-3.055 4.344 6.05 6.05 0 0 1 1.727 5.074l-.059.465-.012.101a5.97 5.97 0 0 1-2.941 4.446c.074.066.121.152.195.222q.282.293.528.614c.097.128.183.261.269.398.145.23.27.465.379.715.07.144.137.285.188.433.101.278.171.563.23.852.027.137.066.27.086.406.059.438.078.883.039 1.336l-.059.629a6.07 6.07 0 0 1-2.789 4.555 6.04 6.04 0 0 1 2.032 4.929l-.039.602a6.05 6.05 0 0 1-2.668 4.641 6.06 6.06 0 0 1 2.168 4.859l-.024.645a6.4 6.4 0 0 1-.226 1.41 6.06 6.06 0 0 1-2.329 3.285 6.06 6.06 0 0 1 2.149 3.426c.101.461.152.937.14 1.425v.571a6.04 6.04 0 0 1-2.43 4.777 6.07 6.07 0 0 1 2.203 3.281h5.07c4.18-12.375 12.879-22.953 24.278-29.441v-15.481h6.703a14 14 0 0 1-.254-2.667c0-7.766 6.32-14.086 14.09-14.086h11.207c7.769 0 14.09 6.32 14.09 14.086 0 .91-.09 1.8-.254 2.667h6.703v15.469c11.414 6.481 20.121 17.071 24.304 29.453h5.071a6.07 6.07 0 0 1 2.203-3.281 6.05 6.05 0 0 1-2.426-4.777l-.01-.571a6 6 0 0 1 .141-1.425 6.1 6.1 0 0 1 2.148-3.426 6.08 6.08 0 0 1-2.328-3.285 6.2 6.2 0 0 1-.222-1.41l-.028-.645a6.06 6.06 0 0 1 2.172-4.859 6.04 6.04 0 0 1-2.672-4.641l-.039-.602a6.04 6.04 0 0 1 2.035-4.929 6.05 6.05 0 0 1-2.789-4.555l-.058-.629a5.8 5.8 0 0 1 .035-1.336c.019-.136.058-.269.086-.406.062-.289.129-.574.23-.852.055-.148.121-.289.188-.433a5.8 5.8 0 0 1 1.179-1.727c.067-.07.122-.156.192-.222a5.99 5.99 0 0 1-2.942-4.446l-.011-.101-.059-.465a6.04 6.04 0 0 1 1.731-5.074 6.06 6.06 0 0 1-3.059-4.344l-.094-.598a6 6 0 0 1-.062-1.422 6.07 6.07 0 0 1 1.613-3.671 6.05 6.05 0 0 1-3.211-4.243l-.109-.543a6.06 6.06 0 0 1 1.332-5.16 6.04 6.04 0 0 1-3.375-4.09l-.094-.375-.047-.203a5.88 5.88 0 0 1 1.153-5.136c-.059-.024-.11-.063-.168-.086a6.5 6.5 0 0 1-.864-.454c-.078-.05-.156-.089-.234-.144a6 6 0 0 1-.914-.777c-.055-.059-.098-.125-.153-.184a6 6 0 0 1-.597-.809 7 7 0 0 1-.18-.293 6.2 6.2 0 0 1-.5-1.164l-.168-.562a6.04 6.04 0 0 1 .809-5.192 6.06 6.06 0 0 1-3.766-3.652l-.195-.535a6.05 6.05 0 0 1 .457-5.211 6.05 6.05 0 0 1-3.992-3.355l-.239-.52a6.04 6.04 0 0 1 .039-5.164 6.03 6.03 0 0 1-3.418-1.848c-.027-.027-.046-.07-.074-.101a6 6 0 0 1-.738-1.004l-.273-.469a6.05 6.05 0 0 1-.493-5.098 6.04 6.04 0 0 1-4.461-2.41l-.363-.48a6.04 6.04 0 0 1-1.086-4.863c-1.683.105-3.398-.465-4.687-1.743l-.395-.386a6 6 0 0 1-.621-.75c-.062-.086-.148-.161-.207-.25-.141-.215-.238-.45-.352-.68-.074-.152-.171-.293-.23-.449-.051-.125-.07-.262-.113-.391-.207-.664-.328-1.355-.305-2.047a6.03 6.03 0 0 1-4.812-.886l-.438-.293c-1.25-.833-2.066-2.055-2.449-3.391h17.375c.207.137.41.266.594.437l.484.477a6.04 6.04 0 0 1 1.668 5.531c.031 0 .059.008.09.008 1.949-.102 3.918.723 5.179 2.402l.364.485a6.04 6.04 0 0 1 1.183 4.23q-.075.728-.316 1.426a6.05 6.05 0 0 1 4.832 2.973l.336.578v.004a6.07 6.07 0 0 1 .211 5.64 6.06 6.06 0 0 1 4.476 3.43l.266.582a6.06 6.06 0 0 1-.297 5.594 6.06 6.06 0 0 1 4.145 3.734l.222.602a6.04 6.04 0 0 1-.695 5.535 6.03 6.03 0 0 1 3.879 3.992l.183.598c.133.457.2.918.227 1.375.01.14 0 .281 0 .425q.001.469-.074.93a6.2 6.2 0 0 1-.387 1.317c-.055.132-.101.269-.168.398a6 6 0 0 1-.609.973c-.031.039-.047.09-.078.129a6.2 6.2 0 0 1 3.687 4.109l.024-.008.148.61a6.05 6.05 0 0 1-1.289 5.359 6.05 6.05 0 0 1 3.422 4.297l.129.644a6.07 6.07 0 0 1-1.516 5.301 6.05 6.05 0 0 1 3.25 4.445l.094.598a6.04 6.04 0 0 1-1.699 5.25 6.05 6.05 0 0 1 3.078 4.52l.07.535a6.14 6.14 0 0 1-1.91 5.246c.09.051.164.129.254.187.254.168.504.344.73.551.129.109.242.235.356.356.187.203.363.406.523.629.098.14.196.277.281.425.153.254.278.52.391.797.059.137.125.27.172.414.141.426.246.871.289 1.34l.051.574a6.05 6.05 0 0 1-2.02 5.106 6.05 6.05 0 0 1 2.805 4.73l.039.602a6.05 6.05 0 0 1-2.16 5.039 6.05 6.05 0 0 1 2.68 4.82l.023.57a6.06 6.06 0 0 1-2.289 4.993 6.06 6.06 0 0 1 2.555 4.84l.011.64a5.8 5.8 0 0 1-.234 1.656c1.519-1.699 3.168-3.265 4.961-4.636v-12.832h4.672a14 14 0 0 1-.106-1.754c0-7.7 6.063-13.961 13.512-13.961h7.93c7.449 0 13.511 6.261 13.511 13.961 0 .593-.039 1.179-.105 1.754h4.672v16.078c7.195 7.226 11.34 17.41 11.34 28.386v8.227h27.211a6.07 6.07 0 0 0-2.164-3.508c1.398-1.109 2.308-2.812 2.308-4.738v-.859c0-1.926-.91-3.629-2.312-4.739 1.41-1.117 2.32-2.836 2.308-4.773v-.895c-.023-1.992-1.019-3.734-2.515-4.82 1.398-1.215 2.242-3.039 2.09-5.031l-.02-.246-.051-.645a6.07 6.07 0 0 0-2.832-4.641c1.309-1.304 2.02-3.183 1.727-5.152l-.035-.262-.094-.625c-.301-1.964-1.527-3.546-3.156-4.418 1.215-1.39 1.797-3.304 1.379-5.246l-.063-.289v-.011l-.129-.579c-.429-1.953-1.765-3.46-3.461-4.214 1.121-1.477 1.567-3.438 1.008-5.352l-.074-.242-.024-.086-.082-.274v-.003l-.078-.254c-.57-1.907-2.004-3.309-3.738-3.942 1.012-1.554 1.32-3.539.625-5.41l-.09-.242v-.023l-.215-.567a6.03 6.03 0 0 0-4.023-3.683c.91-1.626 1.078-3.641.246-5.465l-.086-.196v-.007l-.25-.555a6.06 6.06 0 0 0-4.293-3.41c.793-1.672.832-3.684-.109-5.446l-.106-.199v-.008l-.3-.558a6.06 6.06 0 0 0-4.532-3.09c.684-1.727.586-3.734-.472-5.434l-.113-.175v-.008l-.098-.157-.125-.203-.113-.175c-1.082-1.7-2.875-2.661-4.742-2.774.566-1.781.324-3.801-.868-5.426l-.121-.16v-.008l-.351-.48c-.141-.195-.324-.336-.485-.508-.097-.098-.183-.207-.285-.297a6.17 6.17 0 0 0-4.281-1.648 6.06 6.06 0 0 0-1.226-5.477l-.067-.082-.215-.25c0-.008-.011-.012-.019-.019l-.11-.129c-1.312-1.539-3.222-2.239-5.093-2.098a6.05 6.05 0 0 0-1.618-5.281l-.429-.438v-.004l-.117-.117c-1.411-1.441-3.364-2.011-5.219-1.73a6.03 6.03 0 0 0-1.965-5.149l-.473-.422c0-.003 0-.003-.01-.007l-.106-.094a6.03 6.03 0 0 0-5.332-1.379c.063-1.867-.719-3.742-2.305-4.984l-.476-.375c-.01-.004-.016-.004-.024-.012l-.168-.133a6.05 6.05 0 0 0-5.382-.984c-.071-1.871-.985-3.688-2.653-4.821l-.554-.367a6.04 6.04 0 0 0-5.555-.59c-.133-1.574-.906-3.047-2.164-4.101-.09-.082-.195-.149-.293-.223-.18-.133-.336-.289-.535-.406l-.207-.117c0-.004 0-.008-.01-.008l-.488-.281c-1.75-1.012-3.786-1.035-5.497-.27a6.05 6.05 0 0 0-3.312-4.391l-.141-.07-.375-.183h-.011l-.239-.114c-1.8-.863-3.8-.738-5.437.125-.461-1.804-1.731-3.379-3.59-4.125l-.254-.101c-.012-.004-.019-.012-.031-.016l-.516-.207c-1.859-.75-3.855-.484-5.437.492-.582-1.75-1.938-3.218-3.824-3.843l-.567-.188-.055-.008-.277-.09c-1.898-.609-3.855-.207-5.355.868-.707-1.704-2.168-3.071-4.09-3.559l-.246-.059c-.01 0-.01-.004-.016-.004l-.648-.16a6 6 0 0 0-1.2-.136v-16.911l2.672 1.375v-9.367l-21.211-10.504v-7.215c0-4.402-2.187-8.269-5.511-10.648l5.593-1.566 2.465-8.407-6.914-6.265s.809-2.403.203-3.817c-.605-1.414-1.011-1.011-1.617-5.05-.605-4.039.406-1.411.406-8.075 0-6.668-.406-2.222-.808-5.254-.407-3.027 1.008-2.828 1.414-9.492.402-6.664-1.821-5.05-3.031-8.683-1.211-3.637 0-2.426 2.019-6.867 2.02-4.446 1.617-2.223 4.039-7.071 2.426-4.847.203-1.414.203-6.867v-5.656c0-2.824.606-1.41 2.02-4.442s0-.808-.406-3.84c-.403-3.027-.606-2.824.203-5.449s0-.808-.606-2.625c-.605-1.82-.402-1.617 1.012-4.242s.199-1.215-.406-3.434c-.606-2.222 0-1.617 2.269-6.062 2.27-4.441.153-2.219-1.054-5.449-1.215-3.235-.809-1.817 1.054-4.446 1.867-2.625.356-2.218-3.277-5.855-3.637-3.637-1.414 1.211-3.434 3.836-2.019 2.625-2.222 4.242-3.636 6.664-1.415 2.426-2.422 4.043-4.04 6.262-1.617 2.222-2.019 2.828-4.242 6.261s-.402 3.032-.984 5.25c-.582 2.223-.629 3.235-2.852 6.059-2.222 2.832-6.465.809-7.07-.402s-1.008-2.02-1.613-4.242c-.61-2.223-.809-3.032-1.282-6.262-.476-3.231-.539-3.028-1.343-4.645-.809-1.613-2.024-2.222-3.93-3.031-.73-.309-1.152-.316-1.441-.172-1.727-5.922-3.477-11.926-4.953-16.969l7.851-2.535a1.82 1.82 0 0 0 1.172-2.289 1.826 1.826 0 0 0-2.289-1.172l-7.758 2.504c-1.531-5.226-2.601-8.824-2.719-9.121a1.803 1.803 0 0 0-2.32-1.012c-.926.344-1.398 1.387-1.07 2.321.144.414 1.172 3.886 2.648 8.929l-7.562 2.442a1.816 1.816 0 0 0 .558 3.547c.184 0 .371-.032.559-.086l7.469-2.41c1.754 5.996 3.91 13.394 5.972 20.48a61 61 0 0 0-1.187 4.633c-.512 2.426.109 3.234.011 5.453-.101 2.223.708 2.828.301 5.656-.402 2.828-.402 4.039 0 5.856.407 1.82 2.422 2.832 3.114 4.039.687 1.215 3.351 3.84 3.351 5.254s-.808 4.242-.988 8.484c-.18 4.238-.024 5.047 0 8.074.023 3.032.18 2.625 2.277 4.446 2.098 1.816.527 3.027 0 4.644-.531 1.617.125 3.234-1.625 4.848-1.75 1.617.535 4.039.942 6.465.402 2.421-1.012 5.453-.942 8.882.07 3.434.738 4.446.133 6.868-.605 2.425 1.008 4.039 2.223 5.656 1.211 1.617 1.546 3.211 1.546 3.211l-6.917 6.265 2.468 8.407 5.594 1.566c-3.328 2.379-5.512 6.246-5.512 10.648v7.215l-21.211 10.504v9.367l2.668-1.375v16.922c-.359.02-.714.039-1.078.125l-.648.16-.012.004-.25.059c-1.926.488-3.379 1.855-4.09 3.559-1.5-1.075-3.461-1.477-5.355-.868l-.278.09-.054.008-.567.188c-1.886.625-3.242 2.093-3.824 3.843-1.582-.976-3.578-1.242-5.437-.492l-.516.207-.031.016-.254.101c-1.86.746-3.129 2.321-3.59 4.125-1.637-.863-3.637-.988-5.438-.125l-.238.114h-.012l-.375.183-.14.07a6.05 6.05 0 0 0-3.313 4.391c-1.711-.765-3.746-.742-5.492.27l-.492.281s0 .004-.01.008l-.207.117c-.199.117-.355.273-.535.406-.098.074-.199.141-.293.223-1.258 1.054-2.031 2.527-2.168 4.101a6.03 6.03 0 0 0-5.551.59l-.554.367a6.05 6.05 0 0 0-2.649 4.821 6.05 6.05 0 0 0-5.387.984l-.168.133c-.01.008-.015.008-.019.012l-.481.375c-1.586 1.242-2.367 3.117-2.3 4.984a6.03 6.03 0 0 0-5.336 1.379l-.106.094c0 .004-.01.004-.011.007l-.469.422a6.05 6.05 0 0 0-1.969 5.149 6.02 6.02 0 0 0-5.219 1.73l-.113.117v.004l-.43.438a6.05 6.05 0 0 0-1.617 5.281c-1.871-.141-3.781.559-5.094 2.098l-.109.129q-.015.009-.019.019l-.211.25-.071.082a6.05 6.05 0 0 0-1.226 5.477 6.18 6.18 0 0 0-4.282 1.648c-.097.09-.187.199-.281.297-.164.172-.343.313-.488.508l-.352.48v.008l-.122.16c-1.191 1.625-1.433 3.645-.863 5.426-1.871.113-3.664 1.074-4.75 2.774l-.109.175-.125.203-.102.157v.008l-.109.175c-1.059 1.7-1.156 3.707-.473 5.434a6.04 6.04 0 0 0-4.527 3.09l-.305.558v.008l-.105.199c-.941 1.762-.902 3.774-.109 5.446-1.825.379-3.461 1.582-4.293 3.41l-.25.555v.007l-.086.196c-.832 1.824-.664 3.839.246 5.465-1.785.507-3.324 1.812-4.024 3.683l-.214.567v.023l-.09.242c-.696 1.871-.387 3.856.625 5.41a6.05 6.05 0 0 0-3.742 3.942l-.075.254v.003l-.082.274-.023.086-.07.242c-.563 1.914-.114 3.875 1 5.352-1.692.754-3.032 2.261-3.457 4.214l-.129.579v.011l-.063.289c-.414 1.942.168 3.856 1.383 5.246-1.633.872-2.855 2.454-3.156 4.418l-.094.625-.039.262c-.289 1.969.422 3.848 1.73 5.152a6.07 6.07 0 0 0-2.832 4.641l-.05.645-.02.246c-.152 1.992.692 3.816 2.09 5.031-1.496 1.086-2.492 2.828-2.516 4.82v.895c-.012 1.937.898 3.656 2.308 4.773-1.402 1.11-2.312 2.813-2.312 4.739v.859c0 1.926.91 3.629 2.308 4.738" fill="#886e51"/>
                <path d="M2148.512 1049.156h-115.313l-1.086 7.473h114.254c.512-2.57 1.25-5.055 2.145-7.473" fill="#886e51"/>
                <path d="m1628.258 1056.629-1.086-7.477h-115.375c.894 2.422 1.637 4.903 2.144 7.477z" fill="#886e51"/>
                <path d="M1734.055 1540.965h6.461v-28.867h-8.106l1.274-5.953h-65.883l1.269 5.953h-7.941v28.867h23.168c1.426-3.547 4.887-6.063 8.937-6.063h31.883c4.047 0 7.508 2.516 8.938 6.063" fill="#886e51"/>
                <path d="M1754.258 1540.965h7.676v-4.43c0-12.957 9.89-23.461 22.086-23.461 12.199 0 22.089 10.504 22.089 23.461v4.43h8.668v-4.43c0-12.957 9.887-23.461 22.086-23.461s22.09 10.504 22.09 23.461v4.43h8.664v-4.43c0-12.957 9.891-23.461 22.09-23.461s22.086 10.504 22.086 23.461v4.43h7.48v-28.867h-7.777l1.27-5.953h-152l1.269 5.953h-7.777z" fill="#886e51"/>
                <path d="m1729.984 933.07-1.816-11.043h217.324l-1.816 11.043zm106.844-84.718c39.082 0 71.68 28.171 78.621 65.269h-9.879c-6.789-31.715-35.027-55.574-68.742-55.574-33.711 0-61.945 23.859-68.738 55.574h-9.875c6.937-37.098 39.539-65.269 78.613-65.269m-171.945 223.195h-3.785v23.332h7.937l-1.23 5.781h65.804l-1.23-5.781h8.101v-23.332h-3.949l-4.152-28.848h26.426v-2.687c0-43.953 34.933-79.586 78.023-79.586 43.094 0 78.027 35.633 78.027 79.586v2.687h26.231l-4.152 28.848h-3.954v23.332h8.106l-1.234 5.781h65.808l-1.234-5.781h7.847v-23.332h-3.695l-4.152-28.848h25.019v-24.152a4.197 4.197 0 0 0-4.195-4.199v-5.407c0-1.629-1.242-2.918-2.82-3.105a3.596 3.596 0 0 0 2.793-3.961c-.227-1.84-1.942-3.145-3.801-3.145h-.332c1.312-1.199 2-3.046 1.535-4.949a33 33 0 0 1-.941-7.843v-4.126c0-.624-.157-1.207-.411-1.73a2.896 2.896 0 0 0-.039-5.789h-1.769a2.384 2.384 0 0 0 2.324-2.914l-1.781-7.832a2.39 2.39 0 0 0-2.328-1.859 2.39 2.39 0 0 0-2.328 1.859l-1.782 7.832a2.386 2.386 0 0 0 2.328 2.914h-1.773a2.9 2.9 0 0 0-2.898 2.898 2.9 2.9 0 0 0 2.863 2.891 3.95 3.95 0 0 0-.41 1.73v4.442c0 2.644-.535 5.23-1.008 7.832-.324 1.793.359 3.512 1.601 4.644h-.335c-1.856 0-3.575 1.305-3.801 3.145a3.6 3.6 0 0 0 2.797 3.961c-1.582.187-2.825 1.476-2.825 3.105v5.407h-4.195v.035c-4.297-6.719-10.555-12.063-17.992-15.184v-14.84c-3.164 0-5.922-2.105-6.844-5.132-.832-2.735-1.305-5.438-1.371-8.094h1.328a2.944 2.944 0 0 0 2.942-2.942v-4.824a2.943 2.943 0 0 0-2.942-2.941h-1.426l-1.918-8.137a7.57 7.57 0 0 0 2.219-5.375c0-3.152-1.894-5.84-4.562-6.941l-1.473-15.371c-.141-1.454-2.262-1.454-2.402 0L1970 939.973c-2.672 1.101-4.562 3.789-4.562 6.941a7.57 7.57 0 0 0 2.218 5.375l-1.922 8.137h-1.418a2.943 2.943 0 0 0-2.945 2.941v4.824a2.944 2.944 0 0 0 2.945 2.942h1.325c-.067 2.656-.539 5.359-1.371 8.094-.922 3.027-3.68 5.132-6.844 5.132v14.84c-6.535 2.739-12.153 7.203-16.34 12.797v-57.125h6.824l7.215-41.25h-28.035c-4.715-36.887-31.52-66.859-66.723-76.262.664-1.254 1.297-2.828.668-3.511-1.113-1.211-1.414-3.938-2.625-4.344-1.215-.402-3.336 1.516-3.336 1.719s-.804-.911-1.512-3.942c-.707-3.027-2.726-9.086-7.472-7.371.605-1.816 1.918-5.656-1.012-5.047 1.211-2.222 1.719-5.758-2.32-4.746 0-1.922-1.012-5.152-3.738-3.535-.766-2.676-.379-3.266-2.133-3.32a4 4 0 0 0-.313 0c-1.75.054-1.367.644-2.133 3.32-2.726-1.617-3.734 1.613-3.734 3.535-4.039-1.012-3.535 2.524-2.324 4.746-2.93-.609-1.617 3.231-1.008 5.047-4.746-1.715-6.77 4.344-7.473 7.371-.707 3.031-1.515 4.145-1.515 3.942s-2.121-2.121-3.332-1.719c-1.211.406-1.516 3.133-2.625 4.344-.637.691.019 2.3.695 3.558-35.121 9.457-61.844 39.391-66.551 76.215h-28.035l7.211 41.25h6.824v57.395c-4.203-5.719-9.902-10.286-16.535-13.067v-14.84c-3.164 0-5.922-2.105-6.844-5.132-.836-2.735-1.308-5.438-1.375-8.094h1.328a2.94 2.94 0 0 0 2.942-2.942v-4.824a2.94 2.94 0 0 0-2.942-2.941h-1.421l-1.918-8.137a7.57 7.57 0 0 0 2.214-5.375c0-3.152-1.89-5.84-4.558-6.941l-1.473-15.371c-.14-1.454-2.265-1.454-2.402 0l-1.473 15.371c-2.672 1.101-4.562 3.789-4.562 6.941 0 2.113.851 4.016 2.215 5.375l-1.918 8.137h-1.422a2.94 2.94 0 0 0-2.942 2.941v4.824a2.94 2.94 0 0 0 2.942 2.942h1.324c-.063 2.656-.535 5.359-1.371 8.094-.918 3.027-3.68 5.132-6.844 5.132v14.84c-7.441 3.121-13.703 8.473-18.004 15.199v-.05h-4.191v-5.407c0-1.629-1.242-2.918-2.821-3.105a3.6 3.6 0 0 0 2.793-3.961c-.226-1.84-1.945-3.145-3.8-3.145h-.332c1.238-1.132 1.921-2.851 1.597-4.644-.472-2.602-1.008-5.188-1.008-7.832v-4.442c0-.624-.156-1.207-.41-1.73a2.9 2.9 0 0 0 2.864-2.891 2.9 2.9 0 0 0-2.899-2.898h-1.773a2.386 2.386 0 0 0 2.328-2.914l-1.785-7.832a2.385 2.385 0 0 0-4.653 0l-1.781 7.832a2.386 2.386 0 0 0 2.328 2.914h-1.773a2.9 2.9 0 0 0-2.899 2.898 2.897 2.897 0 0 0 2.864 2.891 3.95 3.95 0 0 0-.411 1.73v4.126c0 2.64-.32 5.273-.945 7.843-.461 1.903.223 3.75 1.535 4.949h-.332c-1.859 0-3.578 1.305-3.801 3.145a3.6 3.6 0 0 0 2.793 3.961c-1.578.187-2.82 1.476-2.82 3.105v5.407a4.197 4.197 0 0 0-4.195 4.199v24.152h25.027z" fill="#886e51"/>
                <path d="M1976.082 1540.965h36.223v-28.867h-7.844l1.269-5.953h-65.882l1.269 5.953h-8.101v23.132c.757-.195 1.539-.328 2.359-.328h31.766c4.05 0 7.515 2.516 8.941 6.063" fill="#886e51"/>
                <path d="M2153.422 1568.918v-41.871a17 17 0 0 1-.707-.348c-4.5-2.371-7.297-6.887-7.297-11.789v-8.765h-112.606l1.27 5.953h-7.941v29.707h20.007c1.192-3.977 4.84-6.903 9.2-6.903h31.25c5.32 0 9.648 4.328 9.648 9.649v24.367h5.734c1.61-1.289 3.625-2.094 5.844-2.094h24.719c2.223 0 4.234.805 5.848 2.094z" fill="#886e51"/>
                <path d="M1527.832 1566.824h24.719c2.222 0 4.238.805 5.847 2.094h5.797v-24.367c0-5.321 4.325-9.649 9.649-9.649h31.187c4.356 0 8.008 2.926 9.199 6.903h20.004v-29.711h-7.937l1.269-5.949h-112.675v8.761c0 4.903-2.797 9.422-7.297 11.793a17 17 0 0 1-.707.348v41.871h15.097c1.614-1.289 3.629-2.094 5.848-2.094" fill="#886e51"/>
                <path d="M1533.41 1233.078v-89.16h58.426v113.465h-58.426zm93.918 30.492-1.031-4.836h7.941v-141.382h-7.941l1.156-5.426h-112.562v3.211c0 5.586-3.114 10.621-8.004 13.074v135.219c.039.043.07.093.105.14z" fill="#886e51"/>
                <path d="M1591.836 1366.902v86.754h-58.426v-113.461h58.426zm34.457 89.297h7.941v-140.476h-7.941l1.277-5.985h-112.707c-.14 4.754-2.886 9.102-7.269 11.407-.235.125-.469.238-.707.351v138.5h120.218z" fill="#886e51"/>
                <path d="M1514.891 1100.66h112.617l-1.211-5.68h7.941v-23.332h-3.789l-.539-3.734h-115.019z" fill="#886e51"/>
                <path d="M2026.141 1094.98h7.941l-1.211 5.68h112.547v-32.742h-114.953l-.535 3.73h-3.789z" fill="#886e51"/>
                <path d="M1634.238 1293.352v-15.145h-3.789l-.722-3.371h-116.422a30.4 30.4 0 0 1 1.586 9.672v13.969h112.496l-1.094-5.125z" fill="#886e51"/>
                <path d="M1674.078 1242.547v-76.445c0-14.836 12.027-26.864 26.863-26.864s26.86 12.028 26.86 26.864v89.191h-53.723zm-12.949-125.195v141.382h7.941l-1.031 4.836h65.402l-1.031-4.836h8.106v-141.382h-8.106l1.16-5.426h-65.656l1.156 5.426z" fill="#886e51"/>
                <path d="M1661.129 1293.352h7.941l-1.093 5.125h65.527l-1.09-5.125h8.102v-15.145h-3.95l-.718-3.371h-70.211l-.719 3.371h-3.789z" fill="#886e51"/>
                <path d="M1810.02 1236.715v8.473l-3.133 3.546-.68 4.157h-51.949v5.843h7.777l-1.031 4.836h151.523l-1.031-4.836h7.777v-5.843h-53.515l-.68-4.157-2.406-2.418v-15.421l5.762-8.036 2.605-12.421h-9.449l1.082-10.711h-10.18a3.7 3.7 0 0 0 .117-1.305c-.144-1.484-.437-2.231-.726-3.418-.293-1.192-.438-2.531-.149-3.871.293-1.34.914-2.973.895-4.61-.02-1.636.019-2.828 0-4.312-.02-1.492-.02-3.273 1.004-4.465 1.019-1.191 1.894-2.082 2.476-3.719.586-1.636.731-2.234 1.024-3.718.289-1.489-1.313-3.125 0-4.465s2.187-2.528 3.207-3.867c1.019-1.34 1.457-1.489 2.332-2.977s1.75-3.125 1.75-3.125 1.461 1.191 1.312 2.531c-.144 1.34-1.726 1.637.012 2.68 1.742 1.039 2.617 1.633 3.93 1.484 1.312-.148 2.039 1.34 3.789-.445s4.086-3.422 5.687-3.867c1.606-.446 2.918-.149 3.067-2.531.144-2.379 2.918-2.379 0-3.418-2.918-1.043-4.086-.598-5.836-1.34-1.75-.746-1.606-1.489-1.313-2.531.293-1.04.438-2.973-.582-3.868-1.023-.89-2.336-1.933-2.48-3.422-.145-1.488.293-.898.582-2.011.293-1.114.586-1.41-.582-3.938-1.168-2.531-1.895-1.547-2.043-5.234-.145-3.692 1.023-2.055-.438-5.18-1.457-3.125-2.039-3.273-2.476-5.805-.442-2.527-.731-2.23-1.606-4.609s.875-2.238 2.043-4.316c1.164-2.082 2.188-3.422 1.313-6.993-.875-3.566-1.75-3.867-1.313-5.8.438-1.934.145-3.422 0-4.91-.148-1.485-.293-1.633.145-2.676s1.019-1.192 1.312-3.422c.293-2.234.875-1.34-.437-4.02-1.313-2.675-1.168-1.929-1.313-4.164-.144-2.23.438-8.629-2.043-8.476-2.48.148-2.332 1.633-2.332 2.972 0 1.34.438 2.977.438 2.977s-1.606 0-2.625-1.785c-1.024-1.785-1.606-2.828-2.918-3.719s0-.152-2.043-1.934c-2.039-1.785-.582-1.785-3.063-2.234-2.476-.445-1.312 0-3.5-.594-2.187-.593-3.062-.445-3.5-1.187-.437-.746-1.168-1.043-1.023-1.785.148-.746.875-.598 1.312-1.489.438-.894 2.043-1.339 1.317-3.871-.731-2.527-1.461-4.461-1.024-6.543.438-2.086 1.168-.746.582-3.125-.582-2.379-1.164-2.828-1.312-4.91-.145-2.082-.289-2.676-1.02-4.461-.73-1.785-.875-3.57-2.769-2.383-1.899 1.192-1.461 1.34-2.481 2.082-1.019.747 1.02.149-2.769.598-3.793.445-5.547 1.039-5.836 2.231-.293 1.191.726 1.339-.293 3.273-1.02 1.934-1.75 1.488-2.188 3.57-.437 2.082.567 1.934-1.027 3.27-1.598 1.34-1.598.301-2.473 2.234s-.875 2.68-.875 3.274c0 .476.77 2.254 2.969 2.582-3.344.418-8.703 1.226-9.312 1.582-1.02.597-7-2.379-7.875-2.973-.875-.598-2.742-3.273-3.121-4.613s-1.84-6.547-2.715-8.035c-.461-.786-1.496-1.606-2.602-2.278l-8.902-32.652c2.512-2.371 1.058-6.367-2.426-9.477l-6.973-10.496.129 12.739c-.89 4.617.746 8.625 4.286 8.945l7.718 28.312c-.687-.07-1.25.215-1.468 1.336-.555 2.828-.465 4.016 0 5.657.464 1.632-1.43 1.543.902 3.296 2.336 1.762 3.801 1.575 4.234 3.161l8.727 32.004c-.719-.231-1.199-.313-1.727.437-1.094 1.563.973 2.234.817 2.68-.094.254 1.105.922 2.152 1.449l.074.266c-1.129-.325-2.566-.657-2.824-.301-.438.594.465 2.082.598 2.828.105.605 2.976 3.172 4.031 4.098l2.535 9.3c.313 1.145.711 5.344.855 6.09.145.742 0 3.27-.144 3.867-.148.594-1.75 4.016-1.75 4.907 0 .894-.148 2.531-.148 3.574 0 1.039-.266 3.121-.934 4.758-.668 1.636-1.254 3.125-1.836 5.207s-1.605 5.058-1.75 7.289-.293 5.355-.145 6.695c.145 1.34-.703 3.981-.714 4.668-.016.688-.016 1.285-1.184 2.324-1.164 1.043-3.645.446-4.664.746-1.023.297-3.355 1.485-3.211 3.27.145 1.789-.144 2.383 1.164 3.574 1.316 1.188 6.887 3.27 7.895 3.719 1.004.445 3.484 1.785 5.234 1.933 1.75.145 3.355 0 3.063-1.789-.29-1.785-1.168-2.972-.876-4.015.293-1.039.438-1.188 1.461-2.379 1.02-1.192 1.602-2.082 1.313-3.57-.293-1.489-1.313-1.043-.441-2.829l.878-1.785s2.039 8.332 3.063 9.375c1.019 1.039 2.914 2.973 2.625 5.059-.293 2.078-.875 2.527-.731 4.164s.731 4.613 1.313 5.652c.582 1.043 1.457 2.379 1.312 4.016-.144 1.637-.035 5.449-.035 5.449s-1.605 5.879-1.75 7.664c-.148 1.785-.293 2.973-.148 4.164.078.613.156 1.383.512 2.028h-13.891l1.082 10.711h-9.449l2.605 12.421 6.489 8.036z" fill="#886e51"/>
                <path d="M1754.258 1293.352h7.777l-1.094 5.125h151.649l-1.094-5.125h7.777v-15.145h-3.625l-.718-3.371h-156.328l-.719 3.371h-3.625z" fill="#886e51"/>
                <path d="M1945.906 1219.121h.02v-53.019c0-14.836 12.027-26.86 26.863-26.86s26.859 12.024 26.859 26.86v89.195h-53.722v-12.75h-.02zm-12.89-101.769v141.382h8.101l-1.031 4.836h65.406l-1.031-4.836h7.848v-141.382h-7.848l1.156-5.426h-65.656l1.156 5.426z" fill="#886e51"/>
                <path d="M1933.016 1293.352h8.101l-1.094 5.125h65.528l-1.09-5.125h7.848v-15.145h-3.696l-.718-3.371h-70.211l-.719 3.371h-3.949z" fill="#886e51"/>
                <path d="M2126.98 1257.383h-58.437v-24.305h.01v-5.207h-.01v-17.086h.01v-5.148h-.01v-24.301h.01v-10.707h-.01v-26.707h58.437zm18.438-145.457h-112.492l1.156 5.426h-7.941v141.382h7.941l-1.031 4.836h120.261c.04-.047.071-.093.11-.14v-135.219c-4.891-2.453-8.004-7.488-8.004-13.074z" fill="#886e51"/>
                <path d="M2145.418 1298.477v-13.969c0-3.324.547-6.551 1.586-9.672h-116.356l-.718 3.375h-3.789v15.141h7.941l-1.094 5.125z" fill="#886e51"/>
                <path d="M1634.238 1489.727v-14.051h-3.789l-.941-4.418h-120.879c4.156 5.82 6.262 12.113 6.262 18.801v4.82h112.504l-1.102-5.152z" fill="#886e51"/>
                <path d="M1678.645 1349.48a23.5 23.5 0 0 1 15.398-15.144c-.16-.594-.273-1.207-.273-1.856 0-2.601 1.398-4.855 3.468-6.113a12.5 12.5 0 0 1-.261-2.504c0-3.961 1.773-7.168 3.961-7.168 2.191 0 3.964 3.207 3.964 7.168 0 .883-.101 1.723-.261 2.504 2.07 1.258 3.468 3.512 3.468 6.113 0 .649-.113 1.262-.273 1.856 7.277 2.238 13.039 7.922 15.402 15.144h4.344l-1.801 6.731h-1.406c0 .184.023.367.023.551v67.383h-46.918v-67.383c0-.184.016-.367.02-.551h-1.402l-1.801-6.731zm-17.516 106.719h7.941l-.808 3.797h64.961l-.813-3.797h8.106v-140.476h-8.106l1.278-5.985h-65.895l1.277 5.985h-7.941z" fill="#886e51"/>
                <path d="M1661.129 1489.727h7.941l-1.097 5.152h65.539l-1.098-5.152h8.102v-14.051h-3.95l-.941-4.418h-69.766l-.941 4.418h-3.789z" fill="#886e51"/>
                <path d="M1761.934 1356.762c0-12.953 9.89-23.461 22.089-23.461 12.196 0 22.086 10.508 22.086 23.461v91.453h-44.175zm52.843 0c0-12.953 9.887-23.461 22.086-23.461s22.086 10.508 22.086 23.461v91.453h-44.172zm52.844 0c0-12.953 9.887-23.461 22.086-23.461s22.086 10.508 22.086 23.461v91.453h-44.172zm-113.363 99.437h7.777l-.812 3.797h151.082l-.809-3.797h7.777v-140.476h-7.777l1.277-5.985h-152.015l1.277 5.985h-7.777z" fill="#886e51"/>
                <path d="M1754.258 1489.727h7.777l-1.097 5.152h151.66l-1.102-5.152h7.777v-14.051h-3.625l-.941-4.418h-155.883l-.941 4.418h-3.625z" fill="#886e51"/>
                <path d="M1950.492 1349.48c2.36-7.222 8.121-12.906 15.399-15.144-.161-.594-.274-1.207-.274-1.856 0-2.601 1.399-4.855 3.469-6.113a12.5 12.5 0 0 1-.262-2.504c0-3.961 1.778-7.168 3.965-7.168 2.188 0 3.961 3.207 3.961 7.168 0 .883-.102 1.723-.262 2.504 2.074 1.258 3.469 3.512 3.469 6.113 0 .649-.109 1.262-.273 1.856a23.52 23.52 0 0 1 15.402 15.144h4.344l-1.797 6.731h-1.406c0 .184.019.367.019.551v67.383h-46.918v-67.383c0-.184.02-.367.024-.551h-1.407l-1.8-6.731zm-17.476 106.719h8.101l-.808 3.797h64.961l-.813-3.797h7.848v-140.476h-7.848l1.277-5.985h-65.894l1.277 5.985h-8.101z" fill="#886e51"/>
                <path d="M1933.016 1489.727h8.101l-1.097 5.152h65.539l-1.098-5.152h7.848v-14.051h-3.696l-.941-4.418h-69.766l-.941 4.418h-3.949z" fill="#886e51"/>
                <path d="M2068.539 1429.352h.016v-5.207h-.016v-24.301h.016v-5.149h-.016v-17.086h.016v-10.707h-.016v-26.711h58.438v113.461h-58.44v-24.304zm-42.398 26.847h7.941l-.809 3.797h120.149v-138.504a12 12 0 0 1-.707-.347c-4.383-2.305-7.129-6.653-7.27-11.403h-112.64l1.277 5.981h-7.941z" fill="#886e51"/>
                <path d="M2026.141 1489.727h7.941l-1.102 5.152h112.438v-4.82c0-6.688 2.109-12.981 6.262-18.801h-120.809l-.941 4.418h-3.789z" fill="#886e51"/>
                <path d="M2521.352 1607.488c33.761 1.989 63.812 7.586 76.648 16.813.547.39 1.301.023 1.301-.649v-42.363c0-15.266-35.703-24.269-77.856-27.031.024.332.055.664.055 1v50.297c0 .656-.062 1.297-.148 1.933" fill="#886e51"/>
                <path d="M2478.555 1619.812c-2.34 0-4.547-.578-6.5-1.582-35.328 1.497-67.774 6.84-82.52 16.036-1.937 1.207-3.047 3.386-3.047 5.672v26.359a.936.936 0 0 0 1.293.879c44.664-17.949 165.567-17.949 210.227 0a.936.936 0 0 0 1.293-.879v-26.359c0-2.286-1.11-4.461-3.047-5.672-14.742-9.196-47.192-14.539-82.52-16.036a14.2 14.2 0 0 1-6.5 1.582z" fill="#886e51"/>
                <path d="M2464.441 1607.488a14 14 0 0 1-.148-1.937v-50.289c0-.34.027-.664.051-.996-39.668 2.601-73.617 10.734-77.457 24.418l-.672 46.609a.76.76 0 0 0 .484-.168c12.156-9.715 42.981-15.586 77.742-17.637" fill="#886e51"/>
                <path d="M2266.32 1625.293h66.653a14 14 0 0 1-.063-1.258v-44.09c0-.429.024-.847.063-1.265h-66.653c.039.418.067.836.067 1.265v44.09c0 .422-.028.844-.067 1.258" fill="#886e51"/>
                <path d="M1394.055 1578.68h-66.653c.039.418.067.84.067 1.265v44.086c0 .426-.028.848-.067 1.262h66.653a15 15 0 0 1-.063-1.262v-44.086c0-.425.028-.847.063-1.265" fill="#886e51"/>
                <path d="M1196.035 1554.266c.02.332.047.656.047.996v50.289c0 .66-.059 1.301-.148 1.937 34.761 2.051 65.589 7.922 77.746 17.637.14.113.304.168.484.168l-.676-46.609c-3.84-13.684-37.789-21.817-77.453-24.418" fill="#886e51"/>
                <path d="M1062.379 1624.297c12.832-9.223 42.887-14.82 76.648-16.813a14 14 0 0 1-.148-1.929v-50.293c0-.34.031-.672.051-1.004-42.149 2.758-77.852 11.765-77.856 27.031v42.363c0 .672.754 1.039 1.305.645" fill="#886e51"/>
                <path d="M1270.84 1634.266c-14.742-9.196-47.188-14.539-82.52-16.036a14.15 14.15 0 0 1-6.496 1.582h-28.683c-2.344 0-4.547-.578-6.5-1.582-35.329 1.497-67.778 6.84-82.516 16.036-1.937 1.207-3.051 3.386-3.051 5.672v26.363a.94.94 0 0 0 1.293.879c44.66-17.953 165.567-17.953 210.231 0a.934.934 0 0 0 1.289-.879v-26.359c0-2.286-1.11-4.465-3.047-5.672" fill="#886e51"/>
                <path d="M2213.207 1578.68h-67.742c.043.422.129.832.129 1.265v44.086c0 .434-.086.84-.129 1.262h67.742a14 14 0 0 1-.066-1.262v-44.086c0-.425.027-.847.066-1.265" fill="#886e51"/>
                <path d="M1514.91 1578.68h-67.742c.039.418.066.84.066 1.265v44.086c0 .426-.027.848-.066 1.262h67.742c-.039-.422-.125-.828-.125-1.262v-44.086c0-.433.086-.843.125-1.265" fill="#886e51"/>
                <path d="M2347.172 1638.297c-4.02 0-7.652-1.68-10.246-4.367h-74.555c-2.594 2.687-6.226 4.367-10.246 4.367h-24.719c-4.023 0-7.656-1.68-10.25-4.367h-76.203c-2.277 1.937-5.191 3.152-8.41 3.152h-24.719c-1.789 0-3.465-.402-5.008-1.07v11.211l5.625 7.644-6.074 8.25-.527 4.172a12 12 0 0 1 2.133 4.836h274.066v-35.242a14.2 14.2 0 0 1-6.148 1.414z" fill="#886e51"/>
                <path d="M2085.004 1544.668h-29.656a3.585 3.585 0 0 0-3.586 3.586v51.605h43.011v-19.918c0-.429.09-.836.129-1.261h-6.308v-30.426a3.587 3.587 0 0 0-3.59-3.586" fill="#886e51"/>
                <path d="M2107.824 1627.387h24.719c1.855 0 3.355-1.5 3.355-3.356v-44.086c0-1.855-1.5-3.355-3.355-3.355h-24.719a3.355 3.355 0 0 0-3.355 3.355v19.914h10.613l-9.59 26.582a3.34 3.34 0 0 0 2.332.946" fill="#886e51"/>
                <path d="M2042.066 1551.566h-63.75v48.297h17.067l-3.496 9.692h36.879l-3.496-9.692h16.796z" fill="#886e51"/>
                <path d="M1935.375 1544.668a3.59 3.59 0 0 0-3.59 3.586v51.605h36.836v-51.605a3.59 3.59 0 0 0-3.59-3.586z" fill="#886e51"/>
                <path d="M1922.094 1551.566h-183.699v48.297h16.242l-3.496 9.692h157.925l-3.5-9.692h16.528z" fill="#886e51"/>
                <path d="M1695.457 1544.668a3.586 3.586 0 0 0-3.586 3.586v51.605h36.832v-51.605a3.586 3.586 0 0 0-3.59-3.586z" fill="#886e51"/>
                <path d="M1682.176 1551.566h-63.864v48.297h16.797l-3.5 9.692h36.711l-3.5-9.692h17.356z" fill="#886e51" stroke-width="2" stroke="#0d99ff"/>
                <path d="M1608.617 1599.859v-51.605a3.585 3.585 0 0 0-3.586-3.586h-29.66a3.586 3.586 0 0 0-3.586 3.586v30.426h-6.308c.039.422.125.832.125 1.265v19.914z" fill="#886e51"/>
                <path d="M1555.906 1579.941c0-1.851-1.5-3.355-3.355-3.355h-24.719a3.357 3.357 0 0 0-3.355 3.355v44.09a3.354 3.354 0 0 0 3.355 3.356h24.719c.91 0 1.73-.364 2.332-.949l-9.59-26.579h10.613z" fill="#886e51"/>
                <path d="m1551.938 1654.867 5.621-7.644v-11.211c-1.543.668-3.219 1.074-5.008 1.074h-24.719c-3.219 0-6.129-1.219-8.406-3.156h-76.207c-2.594 2.687-6.223 4.363-10.246 4.363h-24.719c-4.02 0-7.652-1.676-10.25-4.363h-74.551c-2.594 2.687-6.226 4.363-10.246 4.363h-24.719a14.2 14.2 0 0 1-6.152-1.41v35.242h274.066a12.1 12.1 0 0 1 2.133-4.836l-.523-4.172z" fill="#886e51"/>
                <path d="M1650.375 1749.605c-13.797 0-24.98-11.183-24.98-24.98 0-13.801 11.183-24.984 24.98-24.984s24.98 11.183 24.98 24.984c0 13.797-11.183 24.98-24.98 24.98m31.059-59.828a12 12 0 0 1-4.086-6.66l-1.348-5.988a12.02 12.02 0 0 1 2.066-9.84l-.527-4.172-6.07-8.254 5.621-7.64v-14.645h-.461l-5.191-14.387h-42.942l-5.191 14.387h-.461v14.645l5.621 7.64-6.074 8.254-.528 4.172a12.02 12.02 0 0 1 2.067 9.84l-1.348 5.98a12 12 0 0 1-4.082 6.668l-1.559 14.153c-.175 2.769-1.347 5.25-3.121 7.156l2.465 228.258a11.53 11.53 0 0 1 2.27 6.078l2.535 21.687c0 .649-.09 1.27-.192 1.887h4.497v-149.695c0-13.797 11.183-24.981 24.98-24.981s24.98 11.184 24.98 24.981v149.695h3.676c-.101-.617-.191-1.238-.191-1.887l.07-1.156 2.465-20.531c.16-2.27.984-4.356 2.273-6.078l2.461-228.258c-1.769-1.906-2.945-4.383-3.117-7.156z" fill="#886e51"/>
                <path d="M2010 1749.605c-13.797 0-24.98-11.183-24.98-24.98 0-13.801 11.183-24.984 24.98-24.984s24.984 11.183 24.984 24.984c0 13.797-11.187 24.98-24.984 24.98m31.879-59.828a11.98 11.98 0 0 1-4.082-6.66l-1.352-5.988a12.03 12.03 0 0 1 2.067-9.84l-.524-4.172-6.074-8.254 5.621-7.64v-14.645h-.461l-5.191-14.387h-43.113l-5.192 14.387h-.461v14.645l5.621 7.64-6.074 8.254-.527 4.172a12 12 0 0 1 2.066 9.84l-1.344 5.98a12.14 12.14 0 0 1-2.839 5.485l-1.692 15.336c-.176 2.773-1.348 5.254-3.117 7.156l2.461 228.258a11.46 11.46 0 0 1 2.269 6.078l2.536 21.687c0 .649-.09 1.27-.192 1.887h2.735v-149.695c0-13.797 11.183-24.981 24.98-24.981s24.984 11.184 24.984 24.981v149.695h4.493c-.102-.617-.192-1.238-.192-1.887l.074-1.156 2.465-20.531c.16-2.27.981-4.356 2.27-6.078l2.461-228.258c-1.77-1.906-2.942-4.383-3.117-7.156z" fill="#886e51"/>
                <path d="M1914.832 1774.512h-13.523v-6.215c0-10.84-1.961-21.176-5.5-30.598l12.503-9.719a87.4 87.4 0 0 1 6.5 33.125v11.43h.02zm-19.121 0h-41.031a20.7 20.7 0 0 0-1.227-3.891l37.695-29.297c2.934 8.36 4.563 17.453 4.563 26.973zm-49.965-13.117 23.453-52.278c8.313 6.953 15.106 16.067 19.739 26.59l-38.493 29.918a20.7 20.7 0 0 0-4.699-4.23m-9.922-3.274v-63.269c10.449 1.019 20.207 4.796 28.688 10.691l-23.957 53.406a20 20 0 0 0-4.731-.828m-5.719-80.262v10.989c-11.621 0-22.589 3.144-32.289 8.672l-6.019-13.426a83 83 0 0 1 24.469-8.188c.027 0 .058-.01.089-.011a76 76 0 0 1 3.461-.5 84 84 0 0 1 10.289-.661zm0 80.235a20.2 20.2 0 0 0-4.793.718l-25.164-56.089c8.989-5.207 19.164-8.168 29.957-8.168zm-14.96 7.269-42.348-32.914c5.387-10.84 13.141-19.996 22.469-26.594l24.789 55.262a20.8 20.8 0 0 0-4.91 4.246m-4.465 9.149h-46.188v-6.215c0-10.84 2.11-21.129 5.863-30.41l41.704 32.414a21.3 21.3 0 0 0-1.379 4.211m-51.782-1.977v1.977h-13.503v-13.407c0-13.039 2.851-25.386 7.921-36.46l12.438 9.664c-4.391 10.312-6.856 21.832-6.856 33.988zm27.872-85.621 6.132 13.672c-10.183 6.992-18.664 16.762-24.617 28.355l-12.308-9.566c7.273-13.402 17.914-24.629 30.793-32.461m49.054-9.055v-2.902c3.844.27 7.617.781 11.309 1.535 9.262 1.926 17.965 5.406 25.859 10.141l-6.125 13.652c-9.195-6.215-19.754-10.148-31.043-11.156zm70.047 44.688-12.383 9.625c-5.191-11.297-12.73-21.024-21.898-28.387l6.277-13.992c11.863 8.273 21.528 19.559 28.004 32.754m16.305-32.77a12.04 12.04 0 0 1-4.082-6.66l-1.348-5.988a12.04 12.04 0 0 1 2.066-9.84l-.527-4.172-6.07-8.25 5.617-7.644v-14.645h-.457l-5.195-14.39h-164.157l-5.191 14.39h-.461v14.645l5.621 7.644-6.07 8.25-.531 4.172a12 12 0 0 1 2.066 9.84l-1.344 5.984a12.1 12.1 0 0 1-2.843 5.485l-1.688 15.336c-.176 2.769-1.348 5.25-3.121 7.152l2.465 228.258a11.5 11.5 0 0 1 2.269 6.078l2.535 21.687c0 .645-.089 1.27-.191 1.887h3.856v-186.117h169.437v14.734h-.02v171.383h4.965c-.101-.617-.191-1.242-.191-1.887l.07-1.156 2.469-20.531c.156-2.27.98-4.356 2.27-6.078l2.46-228.258c-1.769-1.902-2.945-4.383-3.121-7.152z" fill="#886e51"/>
                <path d="M2049.746 888.309v31.836c7.004 5.109 12.649 11.945 16.594 19.902 22.258 5.062 44.226 10.871 65.926 17.308v-19.343c-3.539-9.926-4.571-20.399-3.61-30.735a1099 1099 0 0 0-78.91-18.968" fill="#00425a"/>
                <path d="M1622.016 921.469v-35.348c-30.598 5.828-60.758 12.883-90.411 21.176.969 10.473-.089 21.07-3.695 31.074v19.035a1053 1053 0 0 1 80.942-20.586c3.472-5.929 7.882-11.16 13.164-15.351" fill="#00425a"/>
                <path d="M3260.484 1924.766h-325.597c-13.332-315.223-158.649-596.27-382.067-789.391-1.16 2.988-2.48 5.906-4.121 8.633v50.461c209.137 193.156 340.129 469.586 340.129 776.902h418.258c0-25.738-20.863-46.605-46.602-46.605" fill="#00425a"/>
                <path d="M1111.609 1194.5V1144c-1.64-2.719-2.957-5.621-4.117-8.602-223.402 193.118-368.707 474.157-382.035 789.368H400.934c-25.739 0-46.602 20.867-46.602 46.605h417.18c0-307.297 130.976-583.715 340.097-776.871" fill="#00425a"/>
                <path d="M2946.445 2572.129c14.387 0 27.575-4.281 39.575-12.848v-204.019c-12.684-8.231-25.696-12.34-39.063-12.34-16.441 0-30.496 9.512-42.137 28.523-11.652 19.016-17.476 48.914-17.476 89.68 0 40.773 5.48 69.469 16.449 86.082 10.957 16.625 25.184 24.922 42.652 24.922m-29.804 19.019c-20.219 0-38.375-4.546-54.477-13.617-16.109-9.082-28.867-23.129-38.289-42.148-9.426-19.012-14.133-43.422-14.133-73.227q-.002-45.223 15.934-74.773c10.617-19.699 24.668-34.438 42.14-44.199q26.21-14.649 57.047-14.649c11.985 0 23.461 1.207 34.43 3.598q16.443 3.598 29.293 10.789v-66.801c0-7.199-1.117-12.508-3.34-15.933-2.23-3.422-6.937-5.825-14.133-7.2l-9.761-2.058v-5.129l93.531-22.621 5.648 4.629-2.051 71.949v251.304c0 6.856 1.196 12.422 3.598 16.7 2.391 4.289 6.848 7.285 13.36 8.992l4.624 1.547v5.137l-87.878 5.652-4.625-18.5q-13.875 9.247-31.606 14.902c-11.816 3.766-24.926 5.656-39.312 5.656" fill="#00425a"/>
                <path d="M3225.953 2591.148c-21.933 0-38.973-5.488-51.133-16.449-12.168-10.961-18.242-28.433-18.242-52.414v-175.758h-35.461v-5.144l12.332-2.059c10.617-2.386 19.785-5.82 27.5-10.277 7.703-4.445 15.324-10.449 22.867-17.985l42.137-46.765h5.137l-1.535 71.945h57.554v10.285h-58.066v185.004c0 12 2.645 21.071 7.961 27.242 5.308 6.165 12.078 9.247 20.297 9.247q10.798.001 19.023-5.395 8.21-5.396 16.438-14.648l5.144 5.136q-10.288 17.477-28.269 27.758c-11.992 6.844-26.559 10.277-43.684 10.277" fill="#00425a"/>
                <path d="M2406.852 2591.148c-21.934 0-38.973-5.488-51.133-16.449-12.168-10.961-18.242-28.433-18.242-52.414v-175.758h-35.461v-5.144l12.332-2.059c10.613-2.386 19.785-5.82 27.5-10.277 7.703-4.445 15.324-10.449 22.867-17.985l42.137-46.765h5.136l-1.535 71.945h57.555v10.285h-58.067v185.004c0 12 2.645 21.071 7.961 27.242 5.309 6.165 12.078 9.247 20.297 9.247q10.798.001 19.024-5.395 8.21-5.396 16.437-14.648l5.141 5.136q-10.284 17.477-28.266 27.758c-11.992 6.844-26.558 10.277-43.683 10.277" fill="#00425a"/>
                <path d="M2665.922 2539.754c-8.223 6.855-15.34 11.91-21.328 15.156-6 3.262-12.426 4.879-19.274 4.879-9.25 0-17.136-3.508-23.64-10.527q-9.767-10.529-9.766-31.61-.001-24.662 14.137-39.316c9.418-9.758 22.011-16.703 37.773-20.813 4.446-.679 8.391-1.363 11.821-2.05q5.126-1.024 10.277-2.059zm103.808 20.555h-11.304q-21.586 0-21.586-23.121v-113.583q0-50.361-24.926-72.714c-16.621-14.903-40.172-22.36-70.66-22.36-3.566 0-22.68-.172-26.149 0 0 0 33.86 11.008 42.336 24.922 5.719 9.391 8.481 25.793 8.481 49.086v40.602a3637 3637 0 0 1-21.59 3.851 1736 1736 0 0 0-18.496 3.336c-35.293 6.86-61.156 17.051-77.602 30.582q-24.668 20.303-24.668 44.449c0 21.25 6.762 37.524 20.297 48.829 13.532 11.3 30.235 16.96 50.11 16.96 17.129 0 31.089-3.859 41.882-11.562 10.793-7.719 21.329-17.051 31.61-28.016 2.734 11.657 8.476 20.992 17.215 28.016 8.734 7.012 20.636 10.531 35.715 10.531 14.046 0 24.925-2.234 32.636-6.683 7.703-4.454 14.813-10.797 21.324-19.016z" fill="#00425a"/>
                <path d="M2565.516 2403.105c19.484 0 35.281-15.796 35.281-35.281 0-19.48-15.797-35.281-35.281-35.281-19.485 0-35.282 15.801-35.282 35.281 0 19.485 15.797 35.281 35.282 35.281" fill="#00425a"/>
                <path d="M2154.234 2591.148c-16.773 0-31.836-1.976-45.187-5.91q-20.028-5.892-36.973-14.633l.512-61.105h5.137l17.461 30.805c7.527 13.699 15.828 23.879 24.906 30.554 9.062 6.68 20.617 10.016 34.656 10.016 16.434 0 29.699-3.676 39.801-11.039 10.098-7.359 15.152-17.207 15.152-29.531 0-11.297-3.594-20.535-10.785-27.731-7.191-7.187-20.539-13.683-40.055-19.512l-21.57-6.675c-20.887-6.164-37.316-15.742-49.297-28.754-11.988-13.008-17.972-28.93-17.972-47.762 0-22.59 8.898-41.766 26.703-57.516 17.797-15.738 43.304-23.621 76.515-23.621 13.352 0 25.93 1.461 37.742 4.368q17.712 4.367 34.145 13.093l-3.078 55.461h-5.133l-17.973-31.836c-6.503-11.3-12.929-19.261-19.261-23.879-6.332-4.625-15.836-6.937-28.5-6.937-11.637 0-22.59 3.258-32.868 9.758-10.261 6.504-15.402 15.75-15.402 27.734 0 11.637 4.367 20.887 13.102 27.731 8.73 6.847 21.64 13.179 38.769 19l23.11 6.675c24.64 7.532 42.269 17.891 52.886 31.067 10.61 13.183 15.922 29.015 15.922 47.5 0 24.996-9.851 45.023-29.531 60.082-19.691 15.058-47.328 22.597-82.934 22.597" fill="#00425a"/>
                <path d="M936.797 2591.148v-5.144l6.164-2.055c12.336-4.109 18.504-12.668 18.504-25.695v-274.43c0-7.195-1.207-12.504-3.602-15.929q-3.597-5.134-13.875-7.707l-7.707-2.059v-5.141l90.449-22.101 8.223 4.629-2.058 72.457v64.246a208 208 0 0 1 38.804-25.438c13.875-7.019 29.203-10.539 45.996-10.539 22.266 0 39.996 6.348 53.188 19.016 13.187 12.68 19.785 32.207 19.785 58.59v144.918c0 6.859 1.367 12.332 4.113 16.449 2.739 4.113 7.531 7.195 14.391 9.246l4.113 1.543v5.144h-120.258v-5.144l6.164-1.543q18.504-6.163 18.504-26.207v-161.367c0-13.699-2.312-23.125-6.941-28.266-4.621-5.144-12.766-7.707-24.41-7.707q-11.309.001-24.668 4.367c-8.914 2.914-17.985 7.961-27.235 15.157v178.843q-.002 20.046 18.5 25.699l4.11 1.024v5.144z" fill="#00425a"/>
                <path d="M1255.082 2591.148v-5.144l6.164-2.055c12.336-4.109 18.504-12.668 18.504-25.695v-274.945c0-6.848-1.375-12.079-4.113-15.676-2.742-3.594-7.543-6.25-14.391-7.965l-6.68-1.539v-5.141l94.047-22.101 6.168 4.629-2.054 71.949v175.758c0 12.679.078 25.269.253 37.773.172 12.512.258 24.922.258 37.258 0 6.855 1.367 12.418 4.11 16.707q4.107 6.425 13.875 9.5l6.683 1.543v5.144z" fill="#00425a"/>
                <path d="M1546.023 2580.867c11.981 0 21.579-3.418 28.778-10.277 7.191-6.852 12.41-19.016 15.672-36.488q4.877-26.213 4.879-74c0-32.204-1.629-57.051-4.879-74.524-3.262-17.473-8.481-29.625-15.672-36.488-7.199-6.848-16.797-10.278-28.778-10.278-12 0-21.675 3.43-29.039 10.278-7.371 6.863-12.679 19.015-15.933 36.488-3.262 17.473-4.883 42.32-4.883 74.524 0 31.859 1.621 56.523 4.883 74 3.254 17.472 8.562 29.636 15.933 36.488 7.364 6.859 17.039 10.277 29.039 10.277m0 10.278c-26.043 0-48.652-5.391-67.839-16.184-19.192-10.797-34.008-26.125-44.457-46q-15.674-29.8-15.672-69.891c0-26.718 5.566-49.851 16.703-69.375 11.129-19.531 26.379-34.609 45.738-45.23 19.352-10.613 41.195-15.93 65.527-15.93 24.321 0 46.071 5.231 65.262 15.676 19.188 10.453 34.344 25.441 45.488 44.969 11.125 19.531 16.7 42.828 16.7 69.89 0 27.071-5.231 50.45-15.68 70.153-10.453 19.699-25.18 34.941-44.195 45.738-19.012 10.793-41.547 16.184-67.575 16.184" fill="#00425a"/>
                <path d="M858.812 2550.035c-9.941 5.824-22.957 8.738-39.058 8.738q-40.084-.001-59.356-27.5-19.27-27.485-19.269-79.398c0-39.738 5.316-68.953 17.215-86.852 17.562-26.425 56.84-35.628 56.84-35.628-5.25-.551-10.731-.86-16.496-.86-24.333 0-46.688 5.231-67.067 15.68-20.391 10.445-36.668 25.523-48.824 45.219-12.164 19.707-18.242 43.425-18.242 71.179 0 28.098 5.566 51.825 16.703 71.172 11.125 19.363 26.207 34.102 45.222 44.203 19.016 10.098 40.165 15.16 63.465 15.16 24.328 0 45.399-5.492 63.215-16.445 17.809-10.965 31.004-26.551 39.57-46.769l-5.136-4.11c-9.25 11.653-18.848 20.387-28.782 26.211" fill="#00425a"/>
                <path d="M857.449 2413.145c19.485 0 35.281-15.797 35.281-35.282s-15.796-35.281-35.281-35.281-35.277 15.797-35.277 35.281c0 19.485 15.793 35.282 35.277 35.282" fill="#00425a"/>
                <path d="M473.078 2591.148c44.492 0 79.488-10.824 104.004-32.156 24.406-21.262 36.781-49.961 36.781-85.293 0-26.14-6.675-48.851-19.84-67.476-13.171-18.602-35.433-33.457-66.164-44.145l-29.355-9.656c-22.043-8.52-38.863-17.922-50.106-27.969-11.554-10.301-17.418-24.379-17.418-41.828 0-18.031 6.911-32.156 20.528-41.977 13.406-9.66 27.914-14.562 43.125-14.562 16.582 0 29.262 3.559 37.691 10.562 8.262 6.868 16.696 18.739 25.067 35.29l19.73 44.855h5.492l3.75-76.801c-13.363-7.941-27.394-14.004-41.718-18.027-14.77-4.137-30.715-6.231-47.395-6.231-41.418 0-73.625 11.282-95.719 33.536-22.101 22.25-33.308 49.726-33.308 81.675 0 26.617 7.519 49.407 22.351 67.727 14.895 18.406 35.637 32.176 61.668 40.918l27.469 9.676c25.43 8.644 42.41 18.105 51.891 28.894 9.472 10.789 14.273 24.797 14.273 41.633 0 18.465-6.754 33.43-20.078 44.488-13.207 10.957-30.723 16.512-52.063 16.512-18.324 0-33.64-5.059-45.535-15.031-11.734-9.817-22.586-24.953-32.261-44.985l-19.54-43.332h-4.925l-.633 84.93c13.848 8.016 29.144 14.855 45.48 20.336 16.692 5.601 35.782 8.437 56.758 8.437" fill="#00425a"/>
                <path d="M1913.414 2598.871c-13.105 0-25.422-1.297-36.973-3.883-11.55-2.59-23.355-6.629-35.418-12.152l.512-64.121h5.692l11.89 30.515q4.653 12.416 10.606 21.2c3.957 5.863 9.734 10.336 17.316 13.449 3.797 1.379 7.84 2.504 12.156 3.359 4.305.867 8.7 1.289 13.188 1.289 13.094 0 24.383-4.132 33.871-12.41 9.473-8.273 14.215-19.652 14.215-34.133 0-12.406-3.875-22.226-11.633-29.472-7.758-7.235-20.422-14.645-38.004-22.227-18.617-7.586-33.273-16.637-43.953-27.16-10.691-10.508-16.031-23.691-16.031-39.551q-.001-14.467 6.718-24.301c4.477-6.543 10.426-12.746 17.84-18.621 7.41-5.855 15.43-12.41 24.051-19.64 23.086-20.684 34.641-43.438 34.641-68.266 0-18.262-4.828-32.648-14.477-43.172-9.656-10.508-23.617-15.777-41.883-15.777-13.797 0-25.519 3.711-35.164 11.121-9.656 7.418-16.898 19.219-21.722 35.418-3.446 10.687-5.86 23.879-7.239 39.562-1.379 15.688-2.062 36.454-2.062 62.309v102.387c0 35.164.511 70.668 1.547 106.519h-98.246v-5.172l2.586-1.031c13.097-4.144 19.816-12.75 20.167-25.859.336-6.895.516-14.903.516-24.043v-164.692c0-24.476 3.441-44.55 10.34-60.246q10.34-23.512 24.309-38.523c12.746-14.82 28.605-26.535 47.57-35.16 18.949-8.61 39.469-12.926 61.535-12.926q50.672 0 78.594 19.91 27.926 19.91 27.926 47.313c0 13.789-4.657 25.773-13.961 35.937-9.309 10.172-22.414 20.086-39.301 29.731-15.512 7.586-26.629 14.14-33.356 19.652q-10.078 8.273-10.078 17.066c0 6.895 4.992 12.922 14.996 18.098 9.993 5.172 26.02 12.242 48.086 21.199 22.407 10.004 38.434 21.641 48.09 34.903 9.649 13.273 14.481 29.566 14.481 48.859 0 16.211-4.571 30.516-13.704 42.922-9.14 12.41-21.546 22.156-37.234 29.219-15.691 7.058-33.348 10.601-53 10.601" fill="#00425a"/>
                <path d="M1540.504 3433.074q-27.017-.001-44.875-10.531c-11.906-7.02-20.801-16.828-26.676-29.422-5.879-12.594-8.812-27.359-8.812-44.301q0-24.731 9.269-43.621 9.277-18.89 27.477-29.535c12.136-7.102 27.133-10.648 44.992-10.648 17.551 0 30.683 2.48 39.379 7.441q13.054 7.441 13.054 18.434 0 7.555-6.527 12.25-6.528 4.692-17.058 4.691 0-7.553-2.977-14.426-2.977-6.866-9.5-11.218c-4.348-2.895-10.113-4.352-17.285-4.352q-27.938 0-39.84 18.551c-7.941 12.359-11.906 29.843-11.906 52.433 0 22.586 4.156 39.989 12.476 52.2 8.317 12.214 22.473 18.316 42.473 18.316 3.812 0 7.633-.188 11.449-.57 3.813-.379 7.246-1.032 10.301-1.946v-35.949q0-9.843-5.148-12.82c-3.438-1.981-7.75-2.977-12.938-2.977h-1.375v-10.304h62.965v10.304h-1.602q-6.643 0-10.875 3.09-4.24 3.096-4.238 13.625v40.297q-12.135 5.492-24.727 8.242-12.595 2.747-27.476 2.746" fill="#00425a"/>
                <path d="M1638.5 3430.785v-10.301h2.289q7.78.001 12.707-2.863 4.922-2.86 4.922-13.394v-70.75q0-9.845-4.922-12.594c-3.285-1.832-7.441-2.746-12.48-2.746h-.684v-10.075h39.383l2.976 17.86h1.145c4.578-8.547 9.73-14.086 15.453-16.602q8.584-3.778 19.348-3.777c7.629 0 14.425 1.527 20.375 4.578 5.957 3.055 10.304 8.32 13.054 15.801h2.059c4.578-8.547 9.961-14.086 16.141-16.602q9.274-3.778 19.808-3.777 17.396.001 27.473 10.648c6.715 7.094 10.078 18.43 10.078 34V3404c0 7.172 1.523 11.715 4.578 13.621q4.576 2.864 12.363 2.863h.688v10.301h-42.816v-78.078q0-14.879-5.04-23.008-5.037-8.128-17.398-8.129c-5.953 0-10.688 1.567-14.195 4.692-3.516 3.133-6.032 7.215-7.559 12.25q-2.29 7.56-2.289 16.715V3404c0 7.172 1.523 11.715 4.578 13.621q4.582 2.864 12.367 2.863h.688v10.301h-42.817v-78.078c0-9.918-1.683-17.59-5.039-23.008q-5.037-8.128-17.398-8.129c-6.262 0-11.188 1.715-14.77 5.153q-5.385 5.15-7.671 13.394c-1.528 5.492-2.29 11.528-2.29 18.086v47.168c0 6.567 1.75 10.727 5.266 12.477 3.508 1.757 7.785 2.636 12.82 2.636h.688v10.301z" fill="#00425a"/>
                <path d="M1948.285 3417.734c9.309 0 16.027-4.156 20.149-12.476s6.183-20.414 6.183-36.293q0-24.27-6.183-36.176c-4.122-7.934-10.914-11.906-20.375-11.906-11.149 0-18.743 3.972-22.786 11.906q-6.068 11.908-6.066 36.406.001 23.584 6.184 36.063c4.117 8.32 11.75 12.476 22.894 12.476m5.496 15.34q-13.282.002-21.636-5.609-8.362-5.608-13.395-14.539h-1.602l-4.812 17.859h-38.465v-10.305h1.606c5.035 0 9.386-.949 13.046-2.859q5.497-2.86 5.497-13.394v-121.582c0-6.711-1.868-10.989-5.61-12.821q-5.609-2.747-12.933-2.746h-1.606v-10.305h45.336v41.215c0 2.598-.078 5.836-.23 9.731s-.305 7.668-.457 11.332-.309 6.41-.458 8.242h1.145c3.355-6.715 7.785-12.02 13.281-15.914q8.243-5.838 21.52-5.84c14.961 0 26.445 5.082 34.461 15.231q12.02 15.227 12.019 48.425c0 22.133-4.004 38.317-12.019 48.539-8.016 10.231-19.574 15.34-34.688 15.34" fill="#00425a"/>
                <path d="M2038.953 3430.785v-10.301h4.809q7.095-.001 12.023-2.75 4.917-2.746 4.918-13.281v-111.73q-.001-9.844-5.035-12.481c-3.359-1.754-7.324-2.633-11.906-2.633h-4.809v-10.304h70.063v10.304h-4.809q-6.867-.001-11.906 2.746-5.034 2.75-5.035 13.282v45.789h70.519v-45.789q0-10.531-4.922-13.282-4.926-2.747-12.019-2.746h-4.809v-10.304h70.063v10.304h-4.809c-4.578 0-8.551.914-11.906 2.746q-5.035 2.75-5.035 13.282v111.965c0 6.562 1.714 10.683 5.152 12.363q5.144 2.52 11.789 2.519h4.809v10.301h-70.063v-10.301h4.809q7.093-.001 12.019-2.75 4.923-2.746 4.922-13.281v-52.887h-70.519v52.887q0 10.535 5.035 13.281 5.039 2.749 11.906 2.75h4.809v10.301z" fill="#00425a"/>
                <path d="M1360.586 3351.598H355.211a.88.88 0 0 1-.879-.879v-10.078c0-.485.391-.879.879-.879h1005.375a.88.88 0 0 1 .879.879v10.078a.88.88 0 0 1-.879.879" fill="#886e51"/>
                <path d="M3306.207 3351.598H2292.199a.877.877 0 0 1-.875-.879v-10.078c0-.485.391-.879.875-.879h1014.008c.488 0 .879.394.879.879v10.078a.88.88 0 0 1-.879.879" fill="#886e51"/>
                <path d="M370.441 3101.887v-20.715h9.668q14.262.001 24.164-5.524 9.898-5.519 9.899-26.695v-222.785c0-14.109-3.301-23.016-9.899-26.695q-9.902-5.527-24.164-5.528h-9.668v-20.711h140.852v20.711h-9.664c-9.207 0-17.113 1.844-23.707 5.528-6.602 3.679-9.895 12.586-9.895 26.695v222.785c0 14.117 3.293 23.016 9.895 26.695 6.594 3.684 14.5 5.524 23.707 5.524h9.664v20.715z" fill="#00425a"/>
                <path d="M576.191 3101.887v-20.715h4.602c10.43 0 18.945-1.91 25.551-5.754q9.893-5.75 9.894-26.926v-142.23c0-13.192-3.3-21.637-9.894-25.321-6.606-3.679-14.961-5.523-25.09-5.523h-1.379v-20.254h79.172l5.984 35.906h2.301q13.81-25.776 31.07-33.371c11.508-5.066 24.469-7.594 38.895-7.594 15.34 0 29 3.067 40.965 9.204 11.968 6.14 20.715 16.73 26.238 31.761h4.141q13.81-25.776 32.453-33.371c12.426-5.066 25.695-7.594 39.816-7.594 23.317 0 41.727 7.129 55.235 21.403q20.252 21.403 20.253 68.355v108.168c0 14.43 3.067 23.555 9.207 27.387 6.133 3.844 14.418 5.754 24.856 5.754h1.383v20.715h-86.078v-156.965q-.002-29.912-10.129-46.258c-6.75-10.887-18.41-16.34-34.981-16.34-11.968 0-21.484 3.149-28.539 9.438q-10.592 9.438-15.191 24.625c-3.071 10.125-4.602 21.332-4.602 33.601v98.043c0 14.43 3.063 23.555 9.207 27.387 6.137 3.844 14.418 5.754 24.856 5.754h1.379v20.715h-86.075v-156.965c0-19.942-3.379-35.36-10.125-46.258-6.754-10.887-18.414-16.34-34.984-16.34q-18.878 0-29.687 10.356-10.823 10.359-15.422 26.929c-3.071 11.047-4.602 23.172-4.602 36.364v94.82c0 13.199 3.524 21.562 10.586 25.086 7.055 3.531 15.652 5.293 25.777 5.293h1.379v20.715z" fill="#00425a"/>
                <path d="M1053.059 3101.887v-20.715h4.601c10.43 0 18.945-1.91 25.547-5.754 6.594-3.832 9.898-12.809 9.898-26.926v-142.23c0-13.192-3.304-21.637-9.898-25.321-6.602-3.679-14.957-5.523-25.086-5.523h-1.379v-20.254h79.172l5.981 35.906h2.304q13.81-25.776 31.067-33.371c11.511-5.066 24.468-7.594 38.898-7.594 15.34 0 29 3.067 40.965 9.204 11.969 6.14 20.715 16.73 26.234 31.761h4.145q13.81-25.776 32.453-33.371c12.426-5.066 25.699-7.594 39.812-7.594 23.321 0 41.731 7.129 55.239 21.403q20.252 21.403 20.254 68.355v108.168c0 14.43 3.062 23.555 9.203 27.387 6.136 3.844 14.422 5.754 24.859 5.754h1.379v20.715h-86.074v-156.965q-.002-29.912-10.129-46.258c-6.754-10.887-18.41-16.34-34.984-16.34-11.965 0-21.481 3.149-28.536 9.438q-10.592 9.438-15.191 24.625c-3.07 10.125-4.602 21.332-4.602 33.601v98.043c0 14.43 3.063 23.555 9.204 27.387 6.14 3.844 14.421 5.754 24.859 5.754h1.379v20.715h-86.074v-156.965c0-19.942-3.383-35.36-10.125-46.258-6.754-10.887-18.414-16.34-34.985-16.34q-18.878 0-29.687 10.356-10.823 10.359-15.422 26.929c-3.07 11.047-4.602 23.172-4.602 36.364v94.82c0 13.199 3.524 21.562 10.586 25.086 7.055 3.531 15.653 5.293 25.778 5.293h1.378v20.715z" fill="#00425a"/>
                <path d="M1653.285 3081.172c21.477 0 36.594-8.746 45.34-26.238 8.742-17.489 13.117-43.106 13.117-76.868q-.002-51.093-13.117-76.64c-8.746-17.031-24.016-25.547-45.801-25.547-21.793 0-36.98 8.516-45.57 25.547q-12.889 25.547-12.887 76.64c0 33.762 4.442 59.379 13.348 76.868q13.342 26.238 45.57 26.238m-.922 25.316c-34.062 0-60.918-10.586-80.551-31.758-19.644-21.175-29.46-53.398-29.46-96.664 0-43.269 9.355-75.41 28.078-96.433 18.715-21.016 46.492-31.528 83.312-31.528q51.094.002 80.555 31.528c19.633 21.023 29.457 53.164 29.457 96.433q.002 64.9-28.309 96.664-28.307 31.758-83.082 31.758" fill="#00425a"/>
                <path d="M1982.852 3075.648c18.714 0 32.222-8.359 40.507-25.086q12.43-25.079 12.43-72.957c0-32.523-4.144-56.769-12.43-72.726-8.285-15.953-21.945-23.938-40.964-23.938-22.407 0-37.676 7.985-45.801 23.938q-12.2 23.934-12.199 73.187 0 47.417 12.429 72.496c8.285 16.727 23.625 25.086 46.028 25.086m11.05 30.84q-26.7-.002-43.5-11.277c-11.207-7.516-20.179-17.262-26.925-29.231h-3.223l-9.668 35.907h-77.332v-20.715h3.223c10.128 0 18.875-1.914 26.238-5.754q11.049-5.75 11.047-26.926v-244.418c0-13.5-3.762-22.097-11.278-25.777-7.523-3.684-16.187-5.524-26.007-5.524h-3.223v-20.714h91.141v82.851c0 5.223-.157 11.742-.457 19.567q-.47 11.736-.926 22.781c-.305 7.367-.617 12.89-.918 16.574h2.301c6.75-13.5 15.648-24.168 26.699-31.992 11.047-7.824 25.465-11.738 43.265-11.738q45.114.002 69.274 30.613 24.169 30.614 24.168 97.351c0 44.496-8.055 77.028-24.168 97.582-16.106 20.563-39.352 30.84-69.731 30.84" fill="#00425a"/>
                <path d="M2224.504 2810.516q-12.891 0-21.399-6.903c-5.683-4.601-8.519-12.269-8.519-23.015 0-11.047 2.836-18.793 8.519-23.246 5.672-4.446 12.805-6.676 21.399-6.676 7.98 0 14.961 2.23 20.945 6.676q8.977 6.678 8.977 23.246c0 10.746-2.992 18.414-8.977 23.015q-8.976 6.903-20.945 6.903m-65.82 291.371v-20.715h5.98c6.141 0 11.969-.688 17.496-2.07 5.524-1.383 10.047-4.215 13.578-8.516 3.524-4.293 5.293-10.891 5.293-19.793v-144.531c0-8.899-1.769-15.492-5.293-19.797-3.531-4.289-8.054-7.133-13.578-8.516-5.527-1.379-11.355-2.07-17.496-2.07h-2.297v-20.711h89.297v193.785c0 9.516 1.684 16.496 5.066 20.942q5.053 6.68 13.575 8.976c5.675 1.539 11.578 2.301 17.722 2.301h5.985v20.715z" fill="#00425a"/>
                <path d="M2343.719 3101.887v-20.715h5.984c6.137 0 11.969-.762 17.492-2.301 5.524-1.531 10.047-4.523 13.578-8.973 3.524-4.449 5.293-11.429 5.293-20.945v-245.801c0-8.894-1.769-15.492-5.293-19.793q-5.295-6.44-13.808-8.515a73 73 0 0 0-17.262-2.071h-5.984v-20.714h92.98v296.894c0 9.516 1.684 16.496 5.067 20.945 3.371 4.45 7.824 7.442 13.347 8.973 5.524 1.539 11.508 2.301 17.949 2.301h5.524v20.715z" fill="#00425a"/>
                <path d="M2597.801 2810.516c-8.594 0-15.731-2.301-21.403-6.903-5.683-4.601-8.515-12.269-8.515-23.015 0-11.047 2.832-18.793 8.515-23.246 5.672-4.446 12.809-6.676 21.403-6.676 7.976 0 14.961 2.23 20.945 6.676q8.975 6.678 8.973 23.246c0 10.746-2.989 18.414-8.973 23.015-5.984 4.602-12.969 6.903-20.945 6.903m-65.824 291.371v-20.715h5.984q9.207.001 17.492-2.07c5.524-1.383 10.047-4.215 13.578-8.516q5.292-6.44 5.293-19.793v-144.531c0-8.899-1.765-15.492-5.293-19.797-3.531-4.289-8.054-7.133-13.578-8.516q-8.285-2.07-17.492-2.07h-2.301v-20.711h89.297v193.785c0 9.516 1.684 16.496 5.066 20.942 3.372 4.453 7.895 7.445 13.579 8.976 5.675 1.539 11.578 2.301 17.718 2.301h5.985v20.715z" fill="#00425a"/>
                <path d="M2787.902 2955.973h98.504q-.002-36.358-10.586-58-10.594-21.633-35.902-21.633c-15.957 0-28.309 6.832-37.055 20.484-8.746 13.656-13.738 33.371-14.961 59.149m57.078 150.515c-34.984 0-62.07-11.047-81.246-33.14q-28.767-33.14-28.765-92.981c0-43.269 9.129-75.793 27.386-97.582q27.382-32.679 78.02-32.68 46.027 0 72.5 27.844 26.463 27.857 26.465 82.625v21.633h-152.356q.915 49.26 17.719 71.578c11.199 14.887 27.391 22.324 48.563 22.324q23.928 0 40.738-10.125c11.195-6.75 19.558-14.57 25.086-23.476q3.673 1.845 6.672 6.445 2.99 4.601 2.992 11.047 0 10.13-8.973 20.941c-5.988 7.215-15.191 13.278-27.621 18.184-12.43 4.902-28.156 7.363-47.18 7.363" fill="#00425a"/>
                <path d="M3010.227 3101.887v-20.715h2.761c10.43 0 19.25-1.91 26.465-5.754 7.207-3.832 10.82-12.809 10.82-26.926v-141.773q0-20.25-10.359-25.547c-6.902-3.524-15.418-5.293-25.547-5.293h-1.84v-20.715h80.555l5.984 35.906h2.297q14.267-25.775 31.762-33.371c11.66-5.066 24.855-7.594 39.586-7.594 24.238 0 43.109 7.129 56.617 21.403q20.252 21.403 20.254 68.355v108.168c0 14.43 2.992 23.555 8.973 27.387 5.984 3.844 14.195 5.754 24.629 5.754h2.3v20.715h-86.535v-156.965q-.001-29.912-10.355-46.258c-6.906-10.887-18.953-16.34-36.137-16.34-12.887 0-23.094 3.453-30.609 10.356-7.524 6.906-12.887 15.882-16.11 26.929s-4.832 23.172-4.832 36.364v94.82q0 19.8 10.356 25.086 10.36 5.295 25.547 5.293h1.843v20.715z" fill="#00425a"/>
            </g>
        </g>
    </g>
</svg>
